ISO-10303-21;
HEADER;
FILE_DESCRIPTION (( 'STEP AP214' ),
    '1' );
FILE_NAME ('RR0816P-103-D.STEP',
    '2022-07-07T11:19:46',
    ( '' ),
    ( '' ),
    'SwSTEP 2.0',
    'SolidWorks 2018',
    '' );
FILE_SCHEMA (( 'AUTOMOTIVE_DESIGN' ));
ENDSEC;

DATA;
#1 = UNCERTAINTY_MEASURE_WITH_UNIT (LENGTH_MEASURE( 1.000000000000000082E-05 ), #355, 'distance_accuracy_value', 'NONE');
#2 = EDGE_CURVE ( 'NONE', #881, #372, #736, .T. ) ;
#3 = DIRECTION ( 'NONE',  ( 0.0000000000000000000, 1.000000000000000000, 0.0000000000000000000 ) ) ;
#4 = VECTOR ( 'NONE', #124, 1000.000000000000000 ) ;
#5 = ORIENTED_EDGE ( 'NONE', *, *, #902, .T. ) ;
#6 = ORIENTED_EDGE ( 'NONE', *, *, #796, .T. ) ;
#7 = CARTESIAN_POINT ( 'NONE',  ( -0.4749999999999999778, 0.1499999999999999944, -0.4000000000000000222 ) ) ;
#8 = VERTEX_POINT ( 'NONE', #235 ) ;
#9 = DIRECTION ( 'NONE',  ( -1.000000000000000000, -1.084202172485503818E-16, 0.0000000000000000000 ) ) ;
#10 = DIRECTION ( 'NONE',  ( 0.0000000000000000000, 0.0000000000000000000, -1.000000000000000000 ) ) ;
#11 = FACE_OUTER_BOUND ( 'NONE', #479, .T. ) ;
#12 = VECTOR ( 'NONE', #905, 1000.000000000000000 ) ;
#13 = CARTESIAN_POINT ( 'NONE',  ( 0.4749999999999999778, 0.2000000000000000111, 0.4000000000000000222 ) ) ;
#14 = LINE ( 'NONE', #638, #256 ) ;
#15 = DIRECTION ( 'NONE',  ( 0.0000000000000000000, 1.000000000000000000, 0.0000000000000000000 ) ) ;
#16 = VECTOR ( 'NONE', #552, 1000.000000000000000 ) ;
#17 = CARTESIAN_POINT ( 'NONE',  ( -0.4749999999999999778, 0.2000000000000000111, -0.4000000000000000222 ) ) ;
#18 = AXIS2_PLACEMENT_3D ( 'NONE', #900, #223, #296 ) ;
#19 = ORIENTED_EDGE ( 'NONE', *, *, #779, .F. ) ;
#20 = CARTESIAN_POINT ( 'NONE',  ( -0.5000000000000000000, -0.1499999999999999944, 0.4000000000000000222 ) ) ;
#21 = CARTESIAN_POINT ( 'NONE',  ( 0.4749999999999999778, 0.2000000000000000111, 0.4000000000000000222 ) ) ;
#22 = FACE_OUTER_BOUND ( 'NONE', #549, .T. ) ;
#23 = CARTESIAN_POINT ( 'NONE',  ( -0.5000000000000000000, -0.1499999999999999944, -0.4000000000000000222 ) ) ;
#24 = CARTESIAN_POINT ( 'NONE',  ( 0.4749999999999999778, 0.1499999999999999944, -0.4000000000000000222 ) ) ;
#25 = DIRECTION ( 'NONE',  ( 0.0000000000000000000, -1.000000000000000000, 0.0000000000000000000 ) ) ;
#26 = DIRECTION ( 'NONE',  ( 0.0000000000000000000, 0.0000000000000000000, -1.000000000000000000 ) ) ;
#27 = EDGE_LOOP ( 'NONE', ( #855, #121, #787, #959 ) ) ;
#28 = CARTESIAN_POINT ( 'NONE',  ( 0.7500000000000000000, 0.1499999999999999944, 0.4000000000000000222 ) ) ;
#29 = AXIS2_PLACEMENT_3D ( 'NONE', #310, #683, #531 ) ;
#30 = PLANE ( 'NONE',  #927 ) ;
#31 = SURFACE_SIDE_STYLE ('',( #893 ) ) ;
#32 = VECTOR ( 'NONE', #544, 1000.000000000000000 ) ;
#33 = DIRECTION ( 'NONE',  ( 1.000000000000000000, -8.870745047608669863E-16, 0.0000000000000000000 ) ) ;
#34 = DIRECTION ( 'NONE',  ( 0.0000000000000000000, 0.0000000000000000000, -1.000000000000000000 ) ) ;
#35 = EDGE_CURVE ( 'NONE', #960, #703, #200, .T. ) ;
#36 = LINE ( 'NONE', #154, #756 ) ;
#37 = PLANE ( 'NONE',  #582 ) ;
#38 = LINE ( 'NONE', #298, #917 ) ;
#39 = EDGE_LOOP ( 'NONE', ( #382, #811, #666, #445 ) ) ;
#40 = EDGE_LOOP ( 'NONE', ( #427, #617, #497, #943 ) ) ;
#41 = EDGE_CURVE ( 'NONE', #476, #248, #38, .T. ) ;
#42 = DIRECTION ( 'NONE',  ( 0.0000000000000000000, 0.0000000000000000000, -1.000000000000000000 ) ) ;
#43 = LINE ( 'NONE', #309, #496 ) ;
#44 = ORIENTED_EDGE ( 'NONE', *, *, #82, .F. ) ;
#45 = APPLICATION_CONTEXT ( 'automotive_design' ) ;
#46 = EDGE_CURVE ( 'NONE', #334, #656, #557, .T. ) ;
#47 = CARTESIAN_POINT ( 'NONE',  ( 0.7500000000000000000, -0.1499999999999999944, -0.4000000000000000222 ) ) ;
#48 = ORIENTED_EDGE ( 'NONE', *, *, #2, .F. ) ;
#49 = ADVANCED_FACE ( 'NONE', ( #879 ), #696, .F. ) ;
#50 =( LENGTH_UNIT ( ) NAMED_UNIT ( * ) SI_UNIT ( .MILLI., .METRE. ) );
#51 = VECTOR ( 'NONE', #185, 1000.000000000000000 ) ;
#52 = DIRECTION ( 'NONE',  ( -1.000000000000000000, 2.168404344971010101E-16, 0.0000000000000000000 ) ) ;
#53 = VECTOR ( 'NONE', #103, 1000.000000000000000 ) ;
#54 = DIRECTION ( 'NONE',  ( 0.0000000000000000000, 0.0000000000000000000, -1.000000000000000000 ) ) ;
#55 = VERTEX_POINT ( 'NONE', #47 ) ;
#56 = ORIENTED_EDGE ( 'NONE', *, *, #107, .F. ) ;
#57 = ORIENTED_EDGE ( 'NONE', *, *, #731, .T. ) ;
#58 = DIRECTION ( 'NONE',  ( 0.0000000000000000000, -1.000000000000000000, 0.0000000000000000000 ) ) ;
#59 = APPLICATION_PROTOCOL_DEFINITION ( 'draft international standard', 'automotive_design', 1998, #194 ) ;
#60 = MECHANICAL_DESIGN_GEOMETRIC_PRESENTATION_REPRESENTATION (  '', ( #158 ), #112 ) ;
#61 = ADVANCED_FACE ( 'NONE', ( #333 ), #104, .F. ) ;
#62 = CARTESIAN_POINT ( 'NONE',  ( 0.4749999999999999778, 0.1499999999999999944, 0.4000000000000000222 ) ) ;
#63 = AXIS2_PLACEMENT_3D ( 'NONE', #575, #745, #433 ) ;
#64 = FACE_OUTER_BOUND ( 'NONE', #93, .T. ) ;
#65 = EDGE_LOOP ( 'NONE', ( #488, #44, #286, #744 ) ) ;
#66 = CARTESIAN_POINT ( 'NONE',  ( -0.7500000000000000000, 0.1499999999999999944, 0.4000000000000000222 ) ) ;
#67 = DIRECTION ( 'NONE',  ( 1.000000000000000000, 0.0000000000000000000, 0.0000000000000000000 ) ) ;
#68 = LINE ( 'NONE', #290, #619 ) ;
#69 = DIRECTION ( 'NONE',  ( -1.000000000000000000, 0.0000000000000000000, 0.0000000000000000000 ) ) ;
#70 = FACE_OUTER_BOUND ( 'NONE', #72, .T. ) ;
#71 = AXIS2_PLACEMENT_3D ( 'NONE', #469, #125, #622 ) ;
#72 = EDGE_LOOP ( 'NONE', ( #359, #548, #590, #178 ) ) ;
#74 = ORIENTED_EDGE ( 'NONE', *, *, #790, .T. ) ;
#73 = PRODUCT_CONTEXT ( 'NONE', #45, 'mechanical' ) ;
#75 = FILL_AREA_STYLE_COLOUR ( '', #621 ) ;
#76 = CLOSED_SHELL ( 'NONE', ( #135, #257, #184, #629, #494, #199, #809, #263, #873, #712 ) ) ;
#77 = PLANE ( 'NONE',  #396 ) ;
#78 = DIRECTION ( 'NONE',  ( 1.000000000000000000, 2.710505431213760099E-16, 0.0000000000000000000 ) ) ;
#79 = DIRECTION ( 'NONE',  ( 0.0000000000000000000, 1.000000000000000000, 0.0000000000000000000 ) ) ;
#80 = FACE_OUTER_BOUND ( 'NONE', #27, .T. ) ;
#81 = PRODUCT_DEFINITION ( 'UNKNOWN', '', #236, #589 ) ;
#82 = EDGE_CURVE ( 'NONE', #639, #907, #145, .T. ) ;
#83 = VERTEX_POINT ( 'NONE', #122 ) ;
#84 = ORIENTED_EDGE ( 'NONE', *, *, #649, .F. ) ;
#85 = CARTESIAN_POINT ( 'NONE',  ( 0.4749999999999999778, 0.1499999999999999944, 0.4000000000000000222 ) ) ;
#86 = VECTOR ( 'NONE', #258, 1000.000000000000000 ) ;
#87 = EDGE_CURVE ( 'NONE', #763, #880, #808, .T. ) ;
#88 = DIRECTION ( 'NONE',  ( 0.0000000000000000000, 0.0000000000000000000, -1.000000000000000000 ) ) ;
#89 = LINE ( 'NONE', #207, #848 ) ;
#90 = CLOSED_SHELL ( 'NONE', ( #61, #815, #864, #733, #556, #49, #725, #620, #800, #640 ) ) ;
#91 = PLANE ( 'NONE',  #628 ) ;
#92 = CARTESIAN_POINT ( 'NONE',  ( 0.7500000000000000000, 0.1499999999999999944, 0.4000000000000000222 ) ) ;
#93 = EDGE_LOOP ( 'NONE', ( #391, #918, #323, #935 ) ) ;
#94 = ORIENTED_EDGE ( 'NONE', *, *, #948, .T. ) ;
#95 = CARTESIAN_POINT ( 'NONE',  ( 0.4749999999999999778, 0.2000000000000000111, 0.4000000000000000222 ) ) ;
#96 = AXIS2_PLACEMENT_3D ( 'NONE', #659, #148, #282 ) ;
#97 = ORIENTED_EDGE ( 'NONE', *, *, #583, .F. ) ;
#98 = DIRECTION ( 'NONE',  ( 1.000000000000000000, 0.0000000000000000000, 0.0000000000000000000 ) ) ;
#99 = DIRECTION ( 'NONE',  ( 1.000000000000000000, 0.0000000000000000000, 0.0000000000000000000 ) ) ;
#100 = CARTESIAN_POINT ( 'NONE',  ( -0.4749999999999999778, 0.1499999999999999944, -0.4000000000000000222 ) ) ;
#101 = CARTESIAN_POINT ( 'NONE',  ( 0.8000000000000000444, -0.2000000000000000111, 0.4000000000000000222 ) ) ;
#102 = LINE ( 'NONE', #460, #435 ) ;
#103 = DIRECTION ( 'NONE',  ( -1.000000000000000000, 0.0000000000000000000, 0.0000000000000000000 ) ) ;
#104 = PLANE ( 'NONE',  #267 ) ;
#105 = VERTEX_POINT ( 'NONE', #559 ) ;
#106 = CARTESIAN_POINT ( 'NONE',  ( 0.8000000000000000444, -0.2000000000000000111, 0.4000000000000000222 ) ) ;
#107 = EDGE_CURVE ( 'NONE', #215, #797, #717, .T. ) ;
#108 = ORIENTED_EDGE ( 'NONE', *, *, #292, .F. ) ;
#109 = MANIFOLD_SOLID_BREP ( 'NONE', #76 ) ;
#110 = PRODUCT_DEFINITION_SHAPE ( 'NONE', 'NONE',  #81 ) ;
#111 = CARTESIAN_POINT ( 'NONE',  ( 0.5000000000000000000, -0.1499999999999999944, -0.4000000000000000222 ) ) ;
#112 =( GEOMETRIC_REPRESENTATION_CONTEXT ( 3 ) GLOBAL_UNCERTAINTY_ASSIGNED_CONTEXT ( ( #406 ) ) GLOBAL_UNIT_ASSIGNED_CONTEXT ( ( #534, #930, #465 ) ) REPRESENTATION_CONTEXT ( 'NONE', 'WORKASPACE' ) );
#113 = LINE ( 'NONE', #237, #53 ) ;
#114 = STYLED_ITEM ( 'NONE', ( #212 ), #366 ) ;
#115 = DIRECTION ( 'NONE',  ( 0.0000000000000000000, 1.000000000000000000, 0.0000000000000000000 ) ) ;
#116 = VECTOR ( 'NONE', #903, 1000.000000000000000 ) ;
#117 = ORIENTED_EDGE ( 'NONE', *, *, #898, .T. ) ;
#118 = DIRECTION ( 'NONE',  ( 0.0000000000000000000, 0.0000000000000000000, -1.000000000000000000 ) ) ;
#119 = ORIENTED_EDGE ( 'NONE', *, *, #352, .T. ) ;
#120 = EDGE_LOOP ( 'NONE', ( #715, #220, #303, #417 ) ) ;
#121 = ORIENTED_EDGE ( 'NONE', *, *, #866, .F. ) ;
#122 = CARTESIAN_POINT ( 'NONE',  ( 0.4749999999999999778, 0.2000000000000000111, 0.4000000000000000222 ) ) ;
#123 = ADVANCED_FACE ( 'NONE', ( #70 ), #491, .F. ) ;
#124 = DIRECTION ( 'NONE',  ( 1.000000000000000000, -8.870745047608669863E-16, 0.0000000000000000000 ) ) ;
#125 = DIRECTION ( 'NONE',  ( 1.000000000000000000, 1.019578823124770204E-44, 4.701977403289150032E-30 ) ) ;
#126 = VECTOR ( 'NONE', #99, 1000.000000000000000 ) ;
#127 = ORIENTED_EDGE ( 'NONE', *, *, #450, .F. ) ;
#128 = EDGE_LOOP ( 'NONE', ( #615, #503, #870, #487 ) ) ;
#129 = PRODUCT_RELATED_PRODUCT_CATEGORY ( 'part', '', ( #887 ) ) ;
#130 = VECTOR ( 'NONE', #88, 1000.000000000000000 ) ;
#131 = LINE ( 'NONE', #782, #195 ) ;
#132 = CARTESIAN_POINT ( 'NONE',  ( -0.4749999999999999778, 0.1499999999999999944, 0.4000000000000000222 ) ) ;
#133 = VECTOR ( 'NONE', #673, 1000.000000000000000 ) ;
#134 = ORIENTED_EDGE ( 'NONE', *, *, #343, .F. ) ;
#135 = ADVANCED_FACE ( 'NONE', ( #609 ), #890, .F. ) ;
#136 = EDGE_LOOP ( 'NONE', ( #470, #681, #285, #680 ) ) ;
#137 = EDGE_LOOP ( 'NONE', ( #706, #560, #166, #535 ) ) ;
#138 = DIRECTION ( 'NONE',  ( 0.0000000000000000000, 0.0000000000000000000, -1.000000000000000000 ) ) ;
#139 = CARTESIAN_POINT ( 'NONE',  ( -0.7500000000000000000, -0.1499999999999999944, 0.4000000000000000222 ) ) ;
#140 =( GEOMETRIC_REPRESENTATION_CONTEXT ( 3 ) GLOBAL_UNCERTAINTY_ASSIGNED_CONTEXT ( ( #1 ) ) GLOBAL_UNIT_ASSIGNED_CONTEXT ( ( #355, #827, #891 ) ) REPRESENTATION_CONTEXT ( 'NONE', 'WORKASPACE' ) );
#141 = FACE_OUTER_BOUND ( 'NONE', #137, .T. ) ;
#142 = PLANE ( 'NONE',  #96 ) ;
#143 = LINE ( 'NONE', #882, #675 ) ;
#144 = FACE_OUTER_BOUND ( 'NONE', #40, .T. ) ;
#145 = LINE ( 'NONE', #641, #16 ) ;
#146 = VERTEX_POINT ( 'NONE', #724 ) ;
#147 = VERTEX_POINT ( 'NONE', #337 ) ;
#148 = DIRECTION ( 'NONE',  ( 0.0000000000000000000, -1.000000000000000000, 0.0000000000000000000 ) ) ;
#149 = ADVANCED_BREP_SHAPE_REPRESENTATION ( 'RR0816P-103-D', ( #198, #929, #366, #109, #188 ), #254 ) ;
#150 = ORIENTED_EDGE ( 'NONE', *, *, #493, .F. ) ;
#151 = FACE_OUTER_BOUND ( 'NONE', #708, .T. ) ;
#152 = DIRECTION ( 'NONE',  ( 0.0000000000000000000, 0.0000000000000000000, 1.000000000000000000 ) ) ;
#153 = PLANE ( 'NONE',  #218 ) ;
#154 = CARTESIAN_POINT ( 'NONE',  ( -0.4749999999999999778, 0.2000000000000000111, -0.4000000000000000222 ) ) ;
#155 = ORIENTED_EDGE ( 'NONE', *, *, #332, .T. ) ;
#156 = EDGE_LOOP ( 'NONE', ( #168, #871, #189, #234 ) ) ;
#157 = CARTESIAN_POINT ( 'NONE',  ( 0.7500000000000000000, -0.1499999999999999944, -0.4000000000000000222 ) ) ;
#158 = STYLED_ITEM ( 'NONE', ( #859 ), #929 ) ;
#159 = DIRECTION ( 'NONE',  ( 1.000000000000000000, 0.0000000000000000000, 0.0000000000000000000 ) ) ;
#160 = FACE_OUTER_BOUND ( 'NONE', #682, .T. ) ;
#161 = AXIS2_PLACEMENT_3D ( 'NONE', #163, #409, #726 ) ;
#162 = PLANE ( 'NONE',  #29 ) ;
#163 = CARTESIAN_POINT ( 'NONE',  ( 0.8000000000000000444, 0.2000000000000000111, 0.4000000000000000222 ) ) ;
#164 = VECTOR ( 'NONE', #231, 1000.000000000000000 ) ;
#165 = CARTESIAN_POINT ( 'NONE',  ( 0.7500000000000000000, 0.1499999999999999944, 0.4000000000000000222 ) ) ;
#166 = ORIENTED_EDGE ( 'NONE', *, *, #332, .F. ) ;
#167 = CARTESIAN_POINT ( 'NONE',  ( -0.4749999999999999778, 0.2000000000000000111, 0.4000000000000000222 ) ) ;
#168 = ORIENTED_EDGE ( 'NONE', *, *, #750, .T. ) ;
#169 = VERTEX_POINT ( 'NONE', #753 ) ;
#170 = PLANE ( 'NONE',  #850 ) ;
#171 = DIRECTION ( 'NONE',  ( -1.000000000000000000, 0.0000000000000000000, 0.0000000000000000000 ) ) ;
#172 =( NAMED_UNIT ( * ) PLANE_ANGLE_UNIT ( ) SI_UNIT ( $, .RADIAN. ) );
#173 = STYLED_ITEM ( 'NONE', ( #941 ), #109 ) ;
#174 = ORIENTED_EDGE ( 'NONE', *, *, #832, .F. ) ;
#175 = VECTOR ( 'NONE', #118, 1000.000000000000000 ) ;
#176 = DIRECTION ( 'NONE',  ( 1.000000000000000000, 0.0000000000000000000, 0.0000000000000000000 ) ) ;
#177 = VECTOR ( 'NONE', #686, 1000.000000000000000 ) ;
#178 = ORIENTED_EDGE ( 'NONE', *, *, #866, .T. ) ;
#179 = EDGE_CURVE ( 'NONE', #907, #603, #823, .T. ) ;
#180 = ORIENTED_EDGE ( 'NONE', *, *, #910, .T. ) ;
#181 = VERTEX_POINT ( 'NONE', #17 ) ;
#182 = VECTOR ( 'NONE', #606, 1000.000000000000000 ) ;
#183 = AXIS2_PLACEMENT_3D ( 'NONE', #573, #221, #210 ) ;
#184 = ADVANCED_FACE ( 'NONE', ( #795 ), #91, .F. ) ;
#185 = DIRECTION ( 'NONE',  ( 1.000000000000000000, 0.0000000000000000000, 0.0000000000000000000 ) ) ;
#186 = VECTOR ( 'NONE', #3, 1000.000000000000000 ) ;
#187 = ORIENTED_EDGE ( 'NONE', *, *, #569, .T. ) ;
#188 = AXIS2_PLACEMENT_3D ( 'NONE', #942, #338, #208 ) ;
#189 = ORIENTED_EDGE ( 'NONE', *, *, #192, .F. ) ;
#190 = CLOSED_SHELL ( 'NONE', ( #123, #936, #407, #275, #564, #646 ) ) ;
#191 = VERTEX_POINT ( 'NONE', #530 ) ;
#192 = EDGE_CURVE ( 'NONE', #880, #516, #390, .T. ) ;
#193 = DIRECTION ( 'NONE',  ( 0.0000000000000000000, 0.0000000000000000000, -1.000000000000000000 ) ) ;
#194 = APPLICATION_CONTEXT ( 'automotive_design' ) ;
#195 = VECTOR ( 'NONE', #33, 1000.000000000000000 ) ;
#196 = AXIS2_PLACEMENT_3D ( 'NONE', #422, #211, #521 ) ;
#197 = VECTOR ( 'NONE', #572, 1000.000000000000000 ) ;
#198 = MANIFOLD_SOLID_BREP ( 'NONE', #849 ) ;
#199 = ADVANCED_FACE ( 'NONE', ( #331 ), #153, .F. ) ;
#200 = LINE ( 'NONE', #602, #502 ) ;
#201 = ORIENTED_EDGE ( 'NONE', *, *, #512, .F. ) ;
#202 = VERTEX_POINT ( 'NONE', #547 ) ;
#203 = PRESENTATION_LAYER_ASSIGNMENT (  '', '', ( #114 ) ) ;
#204 = ADVANCED_FACE ( 'NONE', ( #467 ), #477, .F. ) ;
#205 = CARTESIAN_POINT ( 'NONE',  ( -0.4749999999999999778, 0.1499999999999999944, 0.4000000000000000222 ) ) ;
#206 = COLOUR_RGB ( '',0.6901960784313725394, 0.6117647058823529882, 0.5294117647058823595 ) ;
#207 = CARTESIAN_POINT ( 'NONE',  ( -0.7500000000000000000, 0.1499999999999999944, 0.4000000000000000222 ) ) ;
#208 = DIRECTION ( 'NONE',  ( 1.000000000000000000, 0.0000000000000000000, 0.0000000000000000000 ) ) ;
#209 = EDGE_CURVE ( 'NONE', #703, #457, #14, .T. ) ;
#210 = DIRECTION ( 'NONE',  ( 0.0000000000000000000, 0.0000000000000000000, 1.000000000000000000 ) ) ;
#211 = DIRECTION ( 'NONE',  ( 0.0000000000000000000, 0.0000000000000000000, -1.000000000000000000 ) ) ;
#212 = PRESENTATION_STYLE_ASSIGNMENT (( #825 ) ) ;
#213 = LINE ( 'NONE', #269, #839 ) ;
#214 = DIRECTION ( 'NONE',  ( 0.0000000000000000000, 1.000000000000000000, 0.0000000000000000000 ) ) ;
#215 = VERTEX_POINT ( 'NONE', #498 ) ;
#216 = ORIENTED_EDGE ( 'NONE', *, *, #626, .F. ) ;
#217 = CARTESIAN_POINT ( 'NONE',  ( -0.7500000000000000000, -0.1499999999999999944, 0.4000000000000000222 ) ) ;
#218 = AXIS2_PLACEMENT_3D ( 'NONE', #551, #618, #398 ) ;
#219 = CARTESIAN_POINT ( 'NONE',  ( 0.5000000000000000000, -0.1499999999999999944, 0.4000000000000000222 ) ) ;
#220 = ORIENTED_EDGE ( 'NONE', *, *, #306, .F. ) ;
#221 = DIRECTION ( 'NONE',  ( -1.000000000000000000, 0.0000000000000000000, 0.0000000000000000000 ) ) ;
#222 = LINE ( 'NONE', #601, #565 ) ;
#223 = DIRECTION ( 'NONE',  ( -1.991364888915565103E-47, 1.000000000000000000, 7.346839692639299114E-32 ) ) ;
#224 = MECHANICAL_DESIGN_GEOMETRIC_PRESENTATION_REPRESENTATION (  '', ( #875 ), #312 ) ;
#225 = ORIENTED_EDGE ( 'NONE', *, *, #714, .F. ) ;
#226 = CARTESIAN_POINT ( 'NONE',  ( 0.8000000000000000444, -0.2000000000000000111, 0.4000000000000000222 ) ) ;
#227 = ORIENTED_EDGE ( 'NONE', *, *, #525, .T. ) ;
#228 = PLANE ( 'NONE',  #196 ) ;
#229 = VECTOR ( 'NONE', #459, 1000.000000000000000 ) ;
#230 = SURFACE_STYLE_USAGE ( .BOTH. , #31 ) ;
#231 = DIRECTION ( 'NONE',  ( 0.0000000000000000000, 0.0000000000000000000, -1.000000000000000000 ) ) ;
#232 = VECTOR ( 'NONE', #592, 1000.000000000000000 ) ;
#233 = DIRECTION ( 'NONE',  ( 0.0000000000000000000, 0.0000000000000000000, 1.000000000000000000 ) ) ;
#234 = ORIENTED_EDGE ( 'NONE', *, *, #771, .T. ) ;
#235 = CARTESIAN_POINT ( 'NONE',  ( -0.4749999999999999778, 0.1499999999999999944, -0.4000000000000000222 ) ) ;
#236 = PRODUCT_DEFINITION_FORMATION_WITH_SPECIFIED_SOURCE ( 'ANY', '', #887, .NOT_KNOWN. ) ;
#237 = CARTESIAN_POINT ( 'NONE',  ( -0.4749999999999999778, 0.2000000000000000111, 0.4000000000000000222 ) ) ;
#238 = EDGE_CURVE ( 'NONE', #799, #202, #379, .T. ) ;
#239 = UNCERTAINTY_MEASURE_WITH_UNIT (LENGTH_MEASURE( 1.000000000000000082E-05 ), #385, 'distance_accuracy_value', 'NONE');
#240 = VECTOR ( 'NONE', #54, 1000.000000000000000 ) ;
#241 = VECTOR ( 'NONE', #596, 1000.000000000000000 ) ;
#242 = CARTESIAN_POINT ( 'NONE',  ( 0.4749999999999999778, 0.2000000000000000111, -0.4000000000000000222 ) ) ;
#243 = ORIENTED_EDGE ( 'NONE', *, *, #238, .T. ) ;
#244 = SURFACE_SIDE_STYLE ('',( #698 ) ) ;
#245 = EDGE_CURVE ( 'NONE', #191, #960, #665, .T. ) ;
#246 = ORIENTED_EDGE ( 'NONE', *, *, #779, .T. ) ;
#247 = CARTESIAN_POINT ( 'NONE',  ( 0.8000000000000000444, 0.2000000000000000111, 0.4000000000000000222 ) ) ;
#248 = VERTEX_POINT ( 'NONE', #945 ) ;
#249 = ORIENTED_EDGE ( 'NONE', *, *, #453, .T. ) ;
#250 = CARTESIAN_POINT ( 'NONE',  ( 0.5000000000000000000, -0.1499999999999999944, 0.4000000000000000222 ) ) ;
#251 = CARTESIAN_POINT ( 'NONE',  ( -0.7500000000000000000, -0.1499999999999999944, 0.4000000000000000222 ) ) ;
#252 = VECTOR ( 'NONE', #741, 1000.000000000000000 ) ;
#253 = VECTOR ( 'NONE', #378, 1000.000000000000000 ) ;
#254 =( GEOMETRIC_REPRESENTATION_CONTEXT ( 3 ) GLOBAL_UNCERTAINTY_ASSIGNED_CONTEXT ( ( #709 ) ) GLOBAL_UNIT_ASSIGNED_CONTEXT ( ( #50, #329, #481 ) ) REPRESENTATION_CONTEXT ( 'NONE', 'WORKASPACE' ) );
#255 = EDGE_CURVE ( 'NONE', #55, #341, #854, .T. ) ;
#256 = VECTOR ( 'NONE', #956, 1000.000000000000000 ) ;
#257 = ADVANCED_FACE ( 'NONE', ( #144 ), #77, .F. ) ;
#258 = DIRECTION ( 'NONE',  ( 2.168404344971010446E-15, 1.000000000000000000, 0.0000000000000000000 ) ) ;
#259 = EDGE_CURVE ( 'NONE', #516, #799, #916, .T. ) ;
#260 = ORIENTED_EDGE ( 'NONE', *, *, #493, .T. ) ;
#261 = ORIENTED_EDGE ( 'NONE', *, *, #914, .F. ) ;
#262 = CARTESIAN_POINT ( 'NONE',  ( 0.0000000000000000000, 0.0000000000000000000, 0.4000000000000000222 ) ) ;
#263 = ADVANCED_FACE ( 'NONE', ( #840 ), #888, .F. ) ;
#264 = CARTESIAN_POINT ( 'NONE',  ( -0.7500000000000000000, -0.1499999999999999944, -0.4000000000000000222 ) ) ;
#265 = EDGE_CURVE ( 'NONE', #603, #558, #577, .T. ) ;
#266 = VECTOR ( 'NONE', #822, 1000.000000000000000 ) ;
#267 = AXIS2_PLACEMENT_3D ( 'NONE', #250, #786, #42 ) ;
#268 = LINE ( 'NONE', #419, #735 ) ;
#269 = CARTESIAN_POINT ( 'NONE',  ( 0.8000000000000000444, 0.2000000000000000111, -0.4000000000000000222 ) ) ;
#270 = LINE ( 'NONE', #961, #597 ) ;
#271 = ORIENTED_EDGE ( 'NONE', *, *, #265, .T. ) ;
#272 = EDGE_CURVE ( 'NONE', #313, #181, #772, .T. ) ;
#273 = VERTEX_POINT ( 'NONE', #438 ) ;
#274 = ORIENTED_EDGE ( 'NONE', *, *, #35, .F. ) ;
#275 = ADVANCED_FACE ( 'NONE', ( #80 ), #293, .F. ) ;
#276 = FACE_OUTER_BOUND ( 'NONE', #519, .T. ) ;
#277 = ORIENTED_EDGE ( 'NONE', *, *, #350, .T. ) ;
#278 = ADVANCED_FACE ( 'NONE', ( #330 ), #142, .F. ) ;
#279 = CARTESIAN_POINT ( 'NONE',  ( -0.8000000000000000444, 0.2000000000000000111, 0.4000000000000000222 ) ) ;
#280 = FACE_OUTER_BOUND ( 'NONE', #136, .T. ) ;
#281 = SURFACE_STYLE_FILL_AREA ( #291 ) ;
#282 = DIRECTION ( 'NONE',  ( 0.0000000000000000000, 0.0000000000000000000, -1.000000000000000000 ) ) ;
#283 = PLANE ( 'NONE',  #554 ) ;
#284 = EDGE_LOOP ( 'NONE', ( #550, #127, #404, #655 ) ) ;
#285 = ORIENTED_EDGE ( 'NONE', *, *, #350, .F. ) ;
#286 = ORIENTED_EDGE ( 'NONE', *, *, #858, .F. ) ;
#287 = VERTEX_POINT ( 'NONE', #751 ) ;
#288 = AXIS2_PLACEMENT_3D ( 'NONE', #593, #844, #25 ) ;
#289 = CARTESIAN_POINT ( 'NONE',  ( 0.7500000000000000000, 0.1499999999999999944, 0.4000000000000000222 ) ) ;
#290 = CARTESIAN_POINT ( 'NONE',  ( 0.5000000000000000000, -0.1499999999999999944, -0.4000000000000000222 ) ) ;
#291 = FILL_AREA_STYLE ('',( #75 ) ) ;
#292 = EDGE_CURVE ( 'NONE', #287, #8, #663, .T. ) ;
#293 = PLANE ( 'NONE',  #63 ) ;
#294 = ORIENTED_EDGE ( 'NONE', *, *, #796, .F. ) ;
#295 = CARTESIAN_POINT ( 'NONE',  ( -0.7500000000000000000, -0.1499999999999999944, -0.4000000000000000222 ) ) ;
#296 = DIRECTION ( 'NONE',  ( 1.000000000000000000, 0.0000000000000000000, 2.710505431213760099E-16 ) ) ;
#297 = VECTOR ( 'NONE', #316, 1000.000000000000000 ) ;
#298 = CARTESIAN_POINT ( 'NONE',  ( -0.7500000000000000000, -0.1499999999999999944, -0.4000000000000000222 ) ) ;
#299 = CARTESIAN_POINT ( 'NONE',  ( 0.7500000000000000000, -0.1499999999999999944, 0.4000000000000000222 ) ) ;
#300 = PLANE ( 'NONE',  #529 ) ;
#301 = VERTEX_POINT ( 'NONE', #904 ) ;
#302 = VERTEX_POINT ( 'NONE', #361 ) ;
#303 = ORIENTED_EDGE ( 'NONE', *, *, #902, .F. ) ;
#304 = STYLED_ITEM ( 'NONE', ( #421 ), #149 ) ;
#305 = CARTESIAN_POINT ( 'NONE',  ( -0.7500000000000000000, -0.1499999999999999944, 0.4000000000000000222 ) ) ;
#306 = EDGE_CURVE ( 'NONE', #881, #393, #143, .T. ) ;
#307 = CARTESIAN_POINT ( 'NONE',  ( -0.7500000000000000000, 0.1499999999999999944, -0.4000000000000000222 ) ) ;
#308 = AXIS2_PLACEMENT_3D ( 'NONE', #448, #838, #375 ) ;
#309 = CARTESIAN_POINT ( 'NONE',  ( -0.7500000000000000000, -0.1499999999999999944, 0.4000000000000000222 ) ) ;
#310 = CARTESIAN_POINT ( 'NONE',  ( -0.7500000000000000000, -0.1499999999999999944, 0.4000000000000000222 ) ) ;
#311 = VECTOR ( 'NONE', #668, 1000.000000000000000 ) ;
#312 =( GEOMETRIC_REPRESENTATION_CONTEXT ( 3 ) GLOBAL_UNCERTAINTY_ASSIGNED_CONTEXT ( ( #239 ) ) GLOBAL_UNIT_ASSIGNED_CONTEXT ( ( #385, #172, #913 ) ) REPRESENTATION_CONTEXT ( 'NONE', 'WORKASPACE' ) );
#313 = VERTEX_POINT ( 'NONE', #100 ) ;
#314 = CARTESIAN_POINT ( 'NONE',  ( -0.4749999999999999778, 0.2000000000000000111, 0.4000000000000000222 ) ) ;
#315 = ORIENTED_EDGE ( 'NONE', *, *, #540, .T. ) ;
#316 = DIRECTION ( 'NONE',  ( 1.000000000000000000, 1.971276677246369793E-16, 0.0000000000000000000 ) ) ;
#317 = EDGE_CURVE ( 'NONE', #83, #580, #598, .T. ) ;
#318 = VECTOR ( 'NONE', #10, 1000.000000000000000 ) ;
#319 = LINE ( 'NONE', #677, #860 ) ;
#320 = VECTOR ( 'NONE', #672, 1000.000000000000000 ) ;
#321 = CARTESIAN_POINT ( 'NONE',  ( -0.7500000000000000000, 0.1499999999999999944, 0.4000000000000000222 ) ) ;
#322 = ORIENTED_EDGE ( 'NONE', *, *, #265, .F. ) ;
#323 = ORIENTED_EDGE ( 'NONE', *, *, #836, .F. ) ;
#324 = EDGE_LOOP ( 'NONE', ( #336, #360, #48, #635 ) ) ;
#325 = DIRECTION ( 'NONE',  ( 0.0000000000000000000, -1.000000000000000000, 0.0000000000000000000 ) ) ;
#326 = VECTOR ( 'NONE', #356, 1000.000000000000000 ) ;
#327 = DIRECTION ( 'NONE',  ( -1.000000000000000000, 2.168404344971010101E-16, 0.0000000000000000000 ) ) ;
#328 = FACE_OUTER_BOUND ( 'NONE', #567, .T. ) ;
#329 =( NAMED_UNIT ( * ) PLANE_ANGLE_UNIT ( ) SI_UNIT ( $, .RADIAN. ) );
#330 = FACE_OUTER_BOUND ( 'NONE', #128, .T. ) ;
#331 = FACE_OUTER_BOUND ( 'NONE', #65, .T. ) ;
#332 = EDGE_CURVE ( 'NONE', #639, #169, #546, .T. ) ;
#333 = FACE_OUTER_BOUND ( 'NONE', #324, .T. ) ;
#334 = VERTEX_POINT ( 'NONE', #132 ) ;
#336 = ORIENTED_EDGE ( 'NONE', *, *, #512, .T. ) ;
#335 = FILL_AREA_STYLE_COLOUR ( '', #206 ) ;
#337 = CARTESIAN_POINT ( 'NONE',  ( -0.8000000000000000444, 0.2000000000000000111, -0.4000000000000000222 ) ) ;
#338 = DIRECTION ( 'NONE',  ( 0.0000000000000000000, 0.0000000000000000000, 1.000000000000000000 ) ) ;
#339 = LINE ( 'NONE', #492, #326 ) ;
#340 = EDGE_CURVE ( 'NONE', #624, #627, #770, .T. ) ;
#341 = VERTEX_POINT ( 'NONE', #952 ) ;
#342 = ORIENTED_EDGE ( 'NONE', *, *, #458, .T. ) ;
#343 = EDGE_CURVE ( 'NONE', #627, #643, #268, .T. ) ;
#344 = DIRECTION ( 'NONE',  ( 2.168404344971010446E-15, 1.000000000000000000, 0.0000000000000000000 ) ) ;
#345 = ORIENTED_EDGE ( 'NONE', *, *, #743, .F. ) ;
#346 = CARTESIAN_POINT ( 'NONE',  ( 0.0000000000000000000, 0.0000000000000000000, -0.4000000000000000222 ) ) ;
#347 = DIRECTION ( 'NONE',  ( -1.000000000000000000, 0.0000000000000000000, 0.0000000000000000000 ) ) ;
#348 = AXIS2_PLACEMENT_3D ( 'NONE', #429, #152, #98 ) ;
#349 = PLANE ( 'NONE',  #348 ) ;
#350 = EDGE_CURVE ( 'NONE', #798, #334, #523, .T. ) ;
#351 = FACE_OUTER_BOUND ( 'NONE', #120, .T. ) ;
#352 = EDGE_CURVE ( 'NONE', #763, #386, #483, .T. ) ;
#353 = CARTESIAN_POINT ( 'NONE',  ( -0.4749999999999999778, 0.2000000000000000111, -0.4000000000000000222 ) ) ;
#354 = LINE ( 'NONE', #687, #474 ) ;
#355 =( LENGTH_UNIT ( ) NAMED_UNIT ( * ) SI_UNIT ( .MILLI., .METRE. ) );
#356 = DIRECTION ( 'NONE',  ( 0.0000000000000000000, 1.000000000000000000, 0.0000000000000000000 ) ) ;
#357 = VECTOR ( 'NONE', #514, 1000.000000000000000 ) ;
#358 = VERTEX_POINT ( 'NONE', #226 ) ;
#359 = ORIENTED_EDGE ( 'NONE', *, *, #255, .T. ) ;
#360 = ORIENTED_EDGE ( 'NONE', *, *, #898, .F. ) ;
#361 = CARTESIAN_POINT ( 'NONE',  ( 0.4749999999999999778, 0.2000000000000000111, -0.4000000000000000222 ) ) ;
#362 = LINE ( 'NONE', #66, #252 ) ;
#363 = AXIS2_PLACEMENT_3D ( 'NONE', #106, #774, #376 ) ;
#364 = VECTOR ( 'NONE', #463, 1000.000000000000000 ) ;
#365 = EDGE_CURVE ( 'NONE', #341, #476, #861, .T. ) ;
#366 = MANIFOLD_SOLID_BREP ( 'NONE', #190 ) ;
#367 = LINE ( 'NONE', #908, #229 ) ;
#368 = CARTESIAN_POINT ( 'NONE',  ( 0.7500000000000000000, 0.1499999999999999944, -0.4000000000000000222 ) ) ;
#369 = CARTESIAN_POINT ( 'NONE',  ( -0.5000000000000000000, -0.2000000000000000111, -0.4000000000000000222 ) ) ;
#370 = CARTESIAN_POINT ( 'NONE',  ( 0.0000000000000000000, 0.0000000000000000000, 0.4000000000000000222 ) ) ;
#371 = VERTEX_POINT ( 'NONE', #217 ) ;
#372 = VERTEX_POINT ( 'NONE', #219 ) ;
#373 = ORIENTED_EDGE ( 'NONE', *, *, #806, .F. ) ;
#374 = DIRECTION ( 'NONE',  ( 0.0000000000000000000, 0.0000000000000000000, -1.000000000000000000 ) ) ;
#375 = DIRECTION ( 'NONE',  ( 0.0000000000000000000, 1.000000000000000000, 0.0000000000000000000 ) ) ;
#376 = DIRECTION ( 'NONE',  ( 0.0000000000000000000, 0.0000000000000000000, 1.000000000000000000 ) ) ;
#377 = DIRECTION ( 'NONE',  ( 0.0000000000000000000, 0.0000000000000000000, -1.000000000000000000 ) ) ;
#378 = DIRECTION ( 'NONE',  ( 0.0000000000000000000, 0.0000000000000000000, -1.000000000000000000 ) ) ;
#379 = LINE ( 'NONE', #368, #402 ) ;
#380 = CARTESIAN_POINT ( 'NONE',  ( -0.5000000000000000000, -0.1499999999999999944, -0.4000000000000000222 ) ) ;
#381 = ORIENTED_EDGE ( 'NONE', *, *, #41, .F. ) ;
#382 = ORIENTED_EDGE ( 'NONE', *, *, #365, .T. ) ;
#383 = FILL_AREA_STYLE_COLOUR ( '', #833 ) ;
#384 = FILL_AREA_STYLE_COLOUR ( '', #713 ) ;
#385 =( LENGTH_UNIT ( ) NAMED_UNIT ( * ) SI_UNIT ( .MILLI., .METRE. ) );
#386 = VERTEX_POINT ( 'NONE', #669 ) ;
#387 = PLANE ( 'NONE',  #71 ) ;
#388 = CARTESIAN_POINT ( 'NONE',  ( -0.4749999999999999778, 0.2000000000000000111, 0.4000000000000000222 ) ) ;
#389 = LINE ( 'NONE', #506, #197 ) ;
#390 = LINE ( 'NONE', #21, #177 ) ;
#391 = ORIENTED_EDGE ( 'NONE', *, *, #806, .T. ) ;
#392 = ORIENTED_EDGE ( 'NONE', *, *, #845, .T. ) ;
#393 = VERTEX_POINT ( 'NONE', #749 ) ;
#394 = PLANE ( 'NONE',  #940 ) ;
#395 = DIRECTION ( 'NONE',  ( 0.0000000000000000000, -1.000000000000000000, 0.0000000000000000000 ) ) ;
#396 = AXIS2_PLACEMENT_3D ( 'NONE', #662, #828, #651 ) ;
#397 = FACE_OUTER_BOUND ( 'NONE', #747, .T. ) ;
#398 = DIRECTION ( 'NONE',  ( 0.0000000000000000000, 0.0000000000000000000, 1.000000000000000000 ) ) ;
#399 = PRESENTATION_LAYER_ASSIGNMENT (  '', '', ( #304 ) ) ;
#400 = LINE ( 'NONE', #139, #12 ) ;
#401 = VECTOR ( 'NONE', #432, 1000.000000000000000 ) ;
#402 = VECTOR ( 'NONE', #482, 1000.000000000000000 ) ;
#403 = EDGE_LOOP ( 'NONE', ( #883, #528, #56, #94 ) ) ;
#404 = ORIENTED_EDGE ( 'NONE', *, *, #458, .F. ) ;
#405 = CARTESIAN_POINT ( 'NONE',  ( -0.7500000000000000000, 0.1499999999999999944, 0.4000000000000000222 ) ) ;
#406 = UNCERTAINTY_MEASURE_WITH_UNIT (LENGTH_MEASURE( 1.000000000000000082E-05 ), #534, 'distance_accuracy_value', 'NONE');
#407 = ADVANCED_FACE ( 'NONE', ( #716 ), #162, .F. ) ;
#408 = CARTESIAN_POINT ( 'NONE',  ( 0.7500000000000000000, -0.1499999999999999944, -0.4000000000000000222 ) ) ;
#409 = DIRECTION ( 'NONE',  ( 0.0000000000000000000, -1.000000000000000000, 0.0000000000000000000 ) ) ;
#410 = LINE ( 'NONE', #689, #924 ) ;
#411 = FILL_AREA_STYLE ('',( #335 ) ) ;
#412 = PLANE ( 'NONE',  #723 ) ;
#413 = AXIS2_PLACEMENT_3D ( 'NONE', #951, #954, #719 ) ;
#414 = DIRECTION ( 'NONE',  ( 0.0000000000000000000, 0.0000000000000000000, -1.000000000000000000 ) ) ;
#415 = DIRECTION ( 'NONE',  ( 0.0000000000000000000, -1.000000000000000000, 0.0000000000000000000 ) ) ;
#416 = ORIENTED_EDGE ( 'NONE', *, *, #434, .F. ) ;
#417 = ORIENTED_EDGE ( 'NONE', *, *, #649, .T. ) ;
#418 = ORIENTED_EDGE ( 'NONE', *, *, #272, .F. ) ;
#419 = CARTESIAN_POINT ( 'NONE',  ( 0.5000000000000000000, -0.2000000000000000111, -0.4000000000000000222 ) ) ;
#420 = ADVANCED_FACE ( 'NONE', ( #734 ), #454, .T. ) ;
#421 = PRESENTATION_STYLE_ASSIGNMENT (( #947 ) ) ;
#422 = CARTESIAN_POINT ( 'NONE',  ( 0.0000000000000000000, 0.0000000000000000000, -0.4000000000000000222 ) ) ;
#423 = LINE ( 'NONE', #851, #253 ) ;
#424 = CARTESIAN_POINT ( 'NONE',  ( 0.8000000000000000444, -0.2000000000000000111, -0.4000000000000000222 ) ) ;
#425 = SURFACE_STYLE_FILL_AREA ( #886 ) ;
#426 = ORIENTED_EDGE ( 'NONE', *, *, #832, .T. ) ;
#427 = ORIENTED_EDGE ( 'NONE', *, *, #272, .T. ) ;
#428 = AXIS2_PLACEMENT_3D ( 'NONE', #926, #862, #115 ) ;
#429 = CARTESIAN_POINT ( 'NONE',  ( 0.0000000000000000000, 0.0000000000000000000, -0.4000000000000000222 ) ) ;
#430 = ORIENTED_EDGE ( 'NONE', *, *, #259, .T. ) ;
#431 =( NAMED_UNIT ( * ) PLANE_ANGLE_UNIT ( ) SI_UNIT ( $, .RADIAN. ) );
#432 = DIRECTION ( 'NONE',  ( 2.168404344971010446E-15, -1.000000000000000000, 0.0000000000000000000 ) ) ;
#433 = DIRECTION ( 'NONE',  ( 1.000000000000000000, 0.0000000000000000000, 0.0000000000000000000 ) ) ;
#434 = EDGE_CURVE ( 'NONE', #580, #287, #222, .T. ) ;
#435 = VECTOR ( 'NONE', #377, 1000.000000000000000 ) ;
#436 = EDGE_CURVE ( 'NONE', #457, #907, #499, .T. ) ;
#437 = FACE_OUTER_BOUND ( 'NONE', #897, .T. ) ;
#438 = CARTESIAN_POINT ( 'NONE',  ( 0.4749999999999999778, 0.1499999999999999944, -0.4000000000000000222 ) ) ;
#439 = PLANE ( 'NONE',  #161 ) ;
#440 = LINE ( 'NONE', #921, #608 ) ;
#441 = CARTESIAN_POINT ( 'NONE',  ( -0.5000000000000000000, -0.1499999999999999944, 0.4000000000000000222 ) ) ;
#442 = VECTOR ( 'NONE', #664, 1000.000000000000000 ) ;
#443 = ORIENTED_EDGE ( 'NONE', *, *, #757, .F. ) ;
#444 = DIRECTION ( 'NONE',  ( -1.000000000000000000, 0.0000000000000000000, 0.0000000000000000000 ) ) ;
#445 = ORIENTED_EDGE ( 'NONE', *, *, #473, .T. ) ;
#446 = EDGE_LOOP ( 'NONE', ( #108, #416, #373, #150 ) ) ;
#447 = DIRECTION ( 'NONE',  ( 0.0000000000000000000, 0.0000000000000000000, 1.000000000000000000 ) ) ;
#448 = CARTESIAN_POINT ( 'NONE',  ( 0.7500000000000000000, -0.1499999999999999944, 0.4000000000000000222 ) ) ;
#449 = LINE ( 'NONE', #305, #543 ) ;
#450 = EDGE_CURVE ( 'NONE', #105, #457, #878, .T. ) ;
#451 = ORIENTED_EDGE ( 'NONE', *, *, #569, .F. ) ;
#452 = DIRECTION ( 'NONE',  ( 1.000000000000000000, -4.517509052022940401E-16, 0.0000000000000000000 ) ) ;
#453 = EDGE_CURVE ( 'NONE', #797, #146, #319, .T. ) ;
#454 = PLANE ( 'NONE',  #288 ) ;
#455 = DIRECTION ( 'NONE',  ( 1.000000000000000000, 0.0000000000000000000, 0.0000000000000000000 ) ) ;
#456 =( GEOMETRIC_REPRESENTATION_CONTEXT ( 3 ) GLOBAL_UNCERTAINTY_ASSIGNED_CONTEXT ( ( #791 ) ) GLOBAL_UNIT_ASSIGNED_CONTEXT ( ( #727, #816, #495 ) ) REPRESENTATION_CONTEXT ( 'NONE', 'WORKASPACE' ) );
#457 = VERTEX_POINT ( 'NONE', #369 ) ;
#458 = EDGE_CURVE ( 'NONE', #960, #105, #354, .T. ) ;
#459 = DIRECTION ( 'NONE',  ( 0.0000000000000000000, -1.000000000000000000, 0.0000000000000000000 ) ) ;
#460 = CARTESIAN_POINT ( 'NONE',  ( 0.7500000000000000000, -0.1499999999999999944, 0.4000000000000000222 ) ) ;
#461 = CARTESIAN_POINT ( 'NONE',  ( 0.7500000000000000000, 0.1499999999999999944, 0.4000000000000000222 ) ) ;
#462 = LINE ( 'NONE', #678, #130 ) ;
#463 = DIRECTION ( 'NONE',  ( 0.0000000000000000000, 1.000000000000000000, 0.0000000000000000000 ) ) ;
#464 = CARTESIAN_POINT ( 'NONE',  ( -0.8000000000000000444, -0.2000000000000000111, 0.4000000000000000222 ) ) ;
#465 =( NAMED_UNIT ( * ) SI_UNIT ( $, .STERADIAN. ) SOLID_ANGLE_UNIT ( ) );
#466 = VECTOR ( 'NONE', #821, 1000.000000000000000 ) ;
#467 = FACE_OUTER_BOUND ( 'NONE', #957, .T. ) ;
#468 = ORIENTED_EDGE ( 'NONE', *, *, #238, .F. ) ;
#469 = CARTESIAN_POINT ( 'NONE',  ( -0.4749999999999999778, 0.1499999999999999944, 0.4000000000000000222 ) ) ;
#470 = ORIENTED_EDGE ( 'NONE', *, *, #292, .T. ) ;
#471 = ORIENTED_EDGE ( 'NONE', *, *, #501, .F. ) ;
#472 = EDGE_CURVE ( 'NONE', #775, #627, #367, .T. ) ;
#473 = EDGE_CURVE ( 'NONE', #932, #341, #783, .T. ) ;
#474 = VECTOR ( 'NONE', #452, 1000.000000000000000 ) ;
#475 = VECTOR ( 'NONE', #52, 1000.000000000000000 ) ;
#476 = VERTEX_POINT ( 'NONE', #307 ) ;
#477 = PLANE ( 'NONE',  #616 ) ;
#478 = ORIENTED_EDGE ( 'NONE', *, *, #586, .F. ) ;
#479 = EDGE_LOOP ( 'NONE', ( #591, #538, #381, #644 ) ) ;
#480 = EDGE_CURVE ( 'NONE', #798, #287, #793, .T. ) ;
#481 =( NAMED_UNIT ( * ) SI_UNIT ( $, .STERADIAN. ) SOLID_ANGLE_UNIT ( ) );
#482 = DIRECTION ( 'NONE',  ( 1.000000000000000000, 1.971276677246369793E-16, 0.0000000000000000000 ) ) ;
#483 = LINE ( 'NONE', #899, #953 ) ;
#484 = COLOUR_RGB ( '',0.6901960784313725394, 0.6117647058823529882, 0.5294117647058823595 ) ;
#485 = ORIENTED_EDGE ( 'NONE', *, *, #757, .T. ) ;
#486 = PLANE ( 'NONE',  #413 ) ;
#487 = ORIENTED_EDGE ( 'NONE', *, *, #317, .T. ) ;
#488 = ORIENTED_EDGE ( 'NONE', *, *, #436, .T. ) ;
#489 = DIRECTION ( 'NONE',  ( -0.0000000000000000000, 1.000000000000000000, 0.0000000000000000000 ) ) ;
#490 = CARTESIAN_POINT ( 'NONE',  ( -0.7500000000000000000, 0.1499999999999999944, 0.4000000000000000222 ) ) ;
#491 = PLANE ( 'NONE',  #889 ) ;
#492 = CARTESIAN_POINT ( 'NONE',  ( 0.8000000000000000444, -0.2000000000000000111, -0.4000000000000000222 ) ) ;
#493 = EDGE_CURVE ( 'NONE', #8, #273, #650, .T. ) ;
#494 = ADVANCED_FACE ( 'NONE', ( #852 ), #394, .F. ) ;
#495 =( NAMED_UNIT ( * ) SI_UNIT ( $, .STERADIAN. ) SOLID_ANGLE_UNIT ( ) );
#496 = VECTOR ( 'NONE', #26, 1000.000000000000000 ) ;
#497 = ORIENTED_EDGE ( 'NONE', *, *, #453, .F. ) ;
#498 = CARTESIAN_POINT ( 'NONE',  ( -0.7500000000000000000, 0.1499999999999999944, 0.4000000000000000222 ) ) ;
#499 = LINE ( 'NONE', #380, #116 ) ;
#500 = ADVANCED_FACE ( 'NONE', ( #280 ), #387, .F. ) ;
#501 = EDGE_CURVE ( 'NONE', #624, #358, #440, .T. ) ;
#502 = VECTOR ( 'NONE', #705, 1000.000000000000000 ) ;
#503 = ORIENTED_EDGE ( 'NONE', *, *, #480, .F. ) ;
#504 = ORIENTED_EDGE ( 'NONE', *, *, #810, .T. ) ;
#505 = ORIENTED_EDGE ( 'NONE', *, *, #540, .F. ) ;
#506 = CARTESIAN_POINT ( 'NONE',  ( -0.4749999999999999778, 0.1499999999999999944, 0.4000000000000000222 ) ) ;
#507 = ORIENTED_EDGE ( 'NONE', *, *, #340, .F. ) ;
#508 = DIRECTION ( 'NONE',  ( 0.0000000000000000000, 0.0000000000000000000, 1.000000000000000000 ) ) ;
#509 = SURFACE_SIDE_STYLE ('',( #425 ) ) ;
#510 = DIRECTION ( 'NONE',  ( 1.000000000000000000, 2.710505431213760099E-16, 0.0000000000000000000 ) ) ;
#511 = CARTESIAN_POINT ( 'NONE',  ( -0.4749999999999999778, 0.1499999999999999944, 0.4000000000000000222 ) ) ;
#512 = EDGE_CURVE ( 'NONE', #393, #775, #68, .T. ) ;
#513 = VECTOR ( 'NONE', #395, 1000.000000000000000 ) ;
#514 = DIRECTION ( 'NONE',  ( 0.0000000000000000000, 1.000000000000000000, 0.0000000000000000000 ) ) ;
#515 = ORIENTED_EDGE ( 'NONE', *, *, #352, .F. ) ;
#516 = VERTEX_POINT ( 'NONE', #657 ) ;
#517 = AXIS2_PLACEMENT_3D ( 'NONE', #251, #625, #327 ) ;
#518 = FACE_OUTER_BOUND ( 'NONE', #761, .T. ) ;
#519 = EDGE_LOOP ( 'NONE', ( #277, #562, #863, #693 ) ) ;
#520 = MECHANICAL_DESIGN_GEOMETRIC_PRESENTATION_REPRESENTATION (  '', ( #173 ), #652 ) ;
#521 = DIRECTION ( 'NONE',  ( 0.0000000000000000000, -1.000000000000000000, 0.0000000000000000000 ) ) ;
#522 = LINE ( 'NONE', #205, #133 ) ;
#523 = LINE ( 'NONE', #511, #401 ) ;
#524 = CARTESIAN_POINT ( 'NONE',  ( 0.5000000000000000000, -0.2000000000000000111, 0.4000000000000000222 ) ) ;
#525 = EDGE_CURVE ( 'NONE', #334, #8, #389, .T. ) ;
#526 = CARTESIAN_POINT ( 'NONE',  ( -0.4749999999999999778, 0.1499999999999999944, 0.4000000000000000222 ) ) ;
#527 = ORIENTED_EDGE ( 'NONE', *, *, #2, .T. ) ;
#528 = ORIENTED_EDGE ( 'NONE', *, *, #537, .F. ) ;
#529 = AXIS2_PLACEMENT_3D ( 'NONE', #814, #159, #679 ) ;
#530 = CARTESIAN_POINT ( 'NONE',  ( -0.8000000000000000444, 0.2000000000000000111, 0.4000000000000000222 ) ) ;
#531 = DIRECTION ( 'NONE',  ( 0.0000000000000000000, 1.000000000000000000, 0.0000000000000000000 ) ) ;
#532 = LINE ( 'NONE', #62, #938 ) ;
#533 = DIRECTION ( 'NONE',  ( -1.000000000000000000, 0.0000000000000000000, 0.0000000000000000000 ) ) ;
#534 =( LENGTH_UNIT ( ) NAMED_UNIT ( * ) SI_UNIT ( .MILLI., .METRE. ) );
#535 = ORIENTED_EDGE ( 'NONE', *, *, #82, .T. ) ;
#536 = CARTESIAN_POINT ( 'NONE',  ( -0.4749999999999999778, 0.1499999999999999944, 0.4000000000000000222 ) ) ;
#537 = EDGE_CURVE ( 'NONE', #797, #313, #522, .T. ) ;
#538 = ORIENTED_EDGE ( 'NONE', *, *, #955, .F. ) ;
#539 = ORIENTED_EDGE ( 'NONE', *, *, #948, .F. ) ;
#540 = EDGE_CURVE ( 'NONE', #578, #371, #400, .T. ) ;
#541 = CARTESIAN_POINT ( 'NONE',  ( 0.7500000000000000000, 0.1499999999999999944, 0.4000000000000000222 ) ) ;
#542 = LINE ( 'NONE', #857, #86 ) ;
#543 = VECTOR ( 'NONE', #768, 1000.000000000000000 ) ;
#544 = DIRECTION ( 'NONE',  ( 0.0000000000000000000, 0.0000000000000000000, -1.000000000000000000 ) ) ;
#545 = ORIENTED_EDGE ( 'NONE', *, *, #87, .F. ) ;
#546 = LINE ( 'NONE', #630, #475 ) ;
#547 = CARTESIAN_POINT ( 'NONE',  ( 0.7500000000000000000, 0.1499999999999999944, -0.4000000000000000222 ) ) ;
#548 = ORIENTED_EDGE ( 'NONE', *, *, #473, .F. ) ;
#549 = EDGE_LOOP ( 'NONE', ( #6, #274, #841, #764 ) ) ;
#550 = ORIENTED_EDGE ( 'NONE', *, *, #209, .T. ) ;
#551 = CARTESIAN_POINT ( 'NONE',  ( -0.5000000000000000000, -0.1499999999999999944, 0.4000000000000000222 ) ) ;
#552 = DIRECTION ( 'NONE',  ( 0.0000000000000000000, 0.0000000000000000000, -1.000000000000000000 ) ) ;
#553 = DIRECTION ( 'NONE',  ( 1.000000000000000000, 0.0000000000000000000, 0.0000000000000000000 ) ) ;
#554 = AXIS2_PLACEMENT_3D ( 'NONE', #346, #508, #67 ) ;
#555 = DIRECTION ( 'NONE',  ( 0.0000000000000000000, 0.0000000000000000000, -1.000000000000000000 ) ) ;
#556 = ADVANCED_FACE ( 'NONE', ( #328 ), #439, .F. ) ;
#557 = LINE ( 'NONE', #526, #126 ) ;
#558 = VERTEX_POINT ( 'NONE', #588 ) ;
#559 = CARTESIAN_POINT ( 'NONE',  ( -0.5000000000000000000, -0.2000000000000000111, 0.4000000000000000222 ) ) ;
#560 = ORIENTED_EDGE ( 'NONE', *, *, #613, .F. ) ;
#561 = VECTOR ( 'NONE', #765, 1000.000000000000000 ) ;
#562 = ORIENTED_EDGE ( 'NONE', *, *, #46, .T. ) ;
#563 = DIRECTION ( 'NONE',  ( 1.000000000000000000, 0.0000000000000000000, 0.0000000000000000000 ) ) ;
#564 = ADVANCED_FACE ( 'NONE', ( #151 ), #412, .F. ) ;
#565 = VECTOR ( 'NONE', #533, 1000.000000000000000 ) ;
#566 = EDGE_LOOP ( 'NONE', ( #835, #216, #721, #392 ) ) ;
#567 = EDGE_LOOP ( 'NONE', ( #831, #925, #545, #119 ) ) ;
#568 = UNCERTAINTY_MEASURE_WITH_UNIT (LENGTH_MEASURE( 1.000000000000000082E-05 ), #648, 'distance_accuracy_value', 'NONE');
#569 = EDGE_CURVE ( 'NONE', #372, #624, #773, .T. ) ;
#570 = SHAPE_DEFINITION_REPRESENTATION ( #110, #149 ) ;
#571 = LINE ( 'NONE', #101, #364 ) ;
#572 = DIRECTION ( 'NONE',  ( 0.0000000000000000000, 0.0000000000000000000, -1.000000000000000000 ) ) ;
#573 = CARTESIAN_POINT ( 'NONE',  ( -0.7500000000000000000, 0.1499999999999999944, 0.4000000000000000222 ) ) ;
#574 = PLANE ( 'NONE',  #308 ) ;
#575 = CARTESIAN_POINT ( 'NONE',  ( -0.7500000000000000000, -0.1499999999999999944, 0.4000000000000000222 ) ) ;
#576 = MECHANICAL_DESIGN_GEOMETRIC_PRESENTATION_REPRESENTATION (  '', ( #114 ), #140 ) ;
#577 = LINE ( 'NONE', #885, #186 ) ;
#578 = VERTEX_POINT ( 'NONE', #490 ) ;
#579 = DIRECTION ( 'NONE',  ( 0.0000000000000000000, 0.0000000000000000000, -1.000000000000000000 ) ) ;
#580 = VERTEX_POINT ( 'NONE', #722 ) ;
#581 = DIRECTION ( 'NONE',  ( 6.980399718801246051E-46, 1.000000000000000000, 7.869011769967379381E-31 ) ) ;
#582 = AXIS2_PLACEMENT_3D ( 'NONE', #600, #233, #553 ) ;
#583 = EDGE_CURVE ( 'NONE', #386, #302, #213, .T. ) ;
#584 = SURFACE_SIDE_STYLE ('',( #281 ) ) ;
#585 = SURFACE_STYLE_FILL_AREA ( #411 ) ;
#586 = EDGE_CURVE ( 'NONE', #181, #147, #36, .T. ) ;
#587 = EDGE_LOOP ( 'NONE', ( #527, #187, #919, #246, #642, #865, #485, #5 ) ) ;
#588 = CARTESIAN_POINT ( 'NONE',  ( -0.7500000000000000000, 0.1499999999999999944, -0.4000000000000000222 ) ) ;
#589 = PRODUCT_DEFINITION_CONTEXT ( 'detailed design', #194, 'design' ) ;
#590 = ORIENTED_EDGE ( 'NONE', *, *, #910, .F. ) ;
#591 = ORIENTED_EDGE ( 'NONE', *, *, #255, .F. ) ;
#592 = DIRECTION ( 'NONE',  ( -1.000000000000000000, 2.168404344971010101E-16, 0.0000000000000000000 ) ) ;
#593 = CARTESIAN_POINT ( 'NONE',  ( 0.0000000000000000000, 0.0000000000000000000, -0.4000000000000000222 ) ) ;
#594 = CARTESIAN_POINT ( 'NONE',  ( 0.5000000000000000000, -0.2000000000000000111, -0.4000000000000000222 ) ) ;
#595 = PRESENTATION_LAYER_ASSIGNMENT (  '', '', ( #173 ) ) ;
#596 = DIRECTION ( 'NONE',  ( 0.0000000000000000000, 0.0000000000000000000, -1.000000000000000000 ) ) ;
#597 = VECTOR ( 'NONE', #138, 1000.000000000000000 ) ;
#598 = LINE ( 'NONE', #13, #915 ) ;
#599 = AXIS2_PLACEMENT_3D ( 'NONE', #405, #325, #633 ) ;
#600 = CARTESIAN_POINT ( 'NONE',  ( 0.0000000000000000000, 0.0000000000000000000, 0.4000000000000000222 ) ) ;
#601 = CARTESIAN_POINT ( 'NONE',  ( -0.4749999999999999778, 0.2000000000000000111, -0.4000000000000000222 ) ) ;
#602 = CARTESIAN_POINT ( 'NONE',  ( -0.8000000000000000444, -0.2000000000000000111, 0.4000000000000000222 ) ) ;
#603 = VERTEX_POINT ( 'NONE', #671 ) ;
#604 = LINE ( 'NONE', #441, #754 ) ;
#605 = LINE ( 'NONE', #461, #297 ) ;
#606 = DIRECTION ( 'NONE',  ( 0.0000000000000000000, -1.000000000000000000, 0.0000000000000000000 ) ) ;
#607 = DIRECTION ( 'NONE',  ( 0.0000000000000000000, -1.000000000000000000, 0.0000000000000000000 ) ) ;
#608 = VECTOR ( 'NONE', #510, 1000.000000000000000 ) ;
#609 = FACE_OUTER_BOUND ( 'NONE', #403, .T. ) ;
#610 = ORIENTED_EDGE ( 'NONE', *, *, #690, .T. ) ;
#611 = AXIS2_PLACEMENT_3D ( 'NONE', #370, #447, #455 ) ;
#612 = DIRECTION ( 'NONE',  ( -1.000000000000000000, 2.168404344971010446E-15, 0.0000000000000000000 ) ) ;
#613 = EDGE_CURVE ( 'NONE', #169, #603, #270, .T. ) ;
#614 = ORIENTED_EDGE ( 'NONE', *, *, #107, .T. ) ;
#615 = ORIENTED_EDGE ( 'NONE', *, *, #434, .T. ) ;
#616 = AXIS2_PLACEMENT_3D ( 'NONE', #805, #489, #563 ) ;
#617 = ORIENTED_EDGE ( 'NONE', *, *, #845, .F. ) ;
#618 = DIRECTION ( 'NONE',  ( -1.000000000000000000, 0.0000000000000000000, 0.0000000000000000000 ) ) ;
#619 = VECTOR ( 'NONE', #9, 1000.000000000000000 ) ;
#620 = ADVANCED_FACE ( 'NONE', ( #351 ), #574, .F. ) ;
#621 = COLOUR_RGB ( '',0.6470588235294117974, 0.6196078431372549211, 0.5882352941176470784 ) ;
#622 = DIRECTION ( 'NONE',  ( 0.0000000000000000000, 1.000000000000000000, -2.168404344971010446E-15 ) ) ;
#623 = ORIENTED_EDGE ( 'NONE', *, *, #729, .F. ) ;
#624 = VERTEX_POINT ( 'NONE', #524 ) ;
#625 = DIRECTION ( 'NONE',  ( -2.168404344971010101E-16, -1.000000000000000000, 0.0000000000000000000 ) ) ;
#626 = EDGE_CURVE ( 'NONE', #191, #147, #767, .T. ) ;
#627 = VERTEX_POINT ( 'NONE', #594 ) ;
#628 = AXIS2_PLACEMENT_3D ( 'NONE', #314, #607, #34 ) ;
#629 = ADVANCED_FACE ( 'NONE', ( #22 ), #300, .F. ) ;
#630 = CARTESIAN_POINT ( 'NONE',  ( -0.7500000000000000000, -0.1499999999999999944, 0.4000000000000000222 ) ) ;
#631 = FACE_OUTER_BOUND ( 'NONE', #587, .T. ) ;
#632 = FILL_AREA_STYLE_COLOUR ( '', #484 ) ;
#633 = DIRECTION ( 'NONE',  ( 0.0000000000000000000, 0.0000000000000000000, -1.000000000000000000 ) ) ;
#634 = LINE ( 'NONE', #653, #876 ) ;
#635 = ORIENTED_EDGE ( 'NONE', *, *, #306, .T. ) ;
#636 = VECTOR ( 'NONE', #374, 1000.000000000000000 ) ;
#637 = VECTOR ( 'NONE', #79, 1000.000000000000000 ) ;
#638 = CARTESIAN_POINT ( 'NONE',  ( -0.8000000000000000444, -0.2000000000000000111, -0.4000000000000000222 ) ) ;
#639 = VERTEX_POINT ( 'NONE', #20 ) ;
#640 = ADVANCED_FACE ( 'NONE', ( #901 ), #283, .F. ) ;
#641 = CARTESIAN_POINT ( 'NONE',  ( -0.5000000000000000000, -0.1499999999999999944, 0.4000000000000000222 ) ) ;
#642 = ORIENTED_EDGE ( 'NONE', *, *, #87, .T. ) ;
#643 = VERTEX_POINT ( 'NONE', #424 ) ;
#644 = ORIENTED_EDGE ( 'NONE', *, *, #365, .F. ) ;
#645 = CARTESIAN_POINT ( 'NONE',  ( 0.0000000000000000000, 0.0000000000000000000, 0.4000000000000000222 ) ) ;
#646 = ADVANCED_FACE ( 'NONE', ( #11 ), #228, .T. ) ;
#647 = LINE ( 'NONE', #388, #792 ) ;
#648 =( LENGTH_UNIT ( ) NAMED_UNIT ( * ) SI_UNIT ( .MILLI., .METRE. ) );
#649 = EDGE_CURVE ( 'NONE', #788, #202, #728, .T. ) ;
#650 = LINE ( 'NONE', #777, #939 ) ;
#651 = DIRECTION ( 'NONE',  ( 0.0000000000000000000, 0.0000000000000000000, 1.000000000000000000 ) ) ;
#652 =( GEOMETRIC_REPRESENTATION_CONTEXT ( 3 ) GLOBAL_UNCERTAINTY_ASSIGNED_CONTEXT ( ( #568 ) ) GLOBAL_UNIT_ASSIGNED_CONTEXT ( ( #648, #431, #958 ) ) REPRESENTATION_CONTEXT ( 'NONE', 'WORKASPACE' ) );
#653 = CARTESIAN_POINT ( 'NONE',  ( 0.8000000000000000444, -0.2000000000000000111, 0.4000000000000000222 ) ) ;
#654 = VECTOR ( 'NONE', #444, 1000.000000000000000 ) ;
#655 = ORIENTED_EDGE ( 'NONE', *, *, #35, .T. ) ;
#656 = VERTEX_POINT ( 'NONE', #85 ) ;
#657 = CARTESIAN_POINT ( 'NONE',  ( 0.4749999999999999778, 0.1499999999999999944, 0.4000000000000000222 ) ) ;
#658 = AXIS2_PLACEMENT_3D ( 'NONE', #262, #193, #868 ) ;
#659 = CARTESIAN_POINT ( 'NONE',  ( -0.4749999999999999778, 0.2000000000000000111, 0.4000000000000000222 ) ) ;
#660 = LINE ( 'NONE', #892, #318 ) ;
#661 = CARTESIAN_POINT ( 'NONE',  ( -0.7500000000000000000, 0.1499999999999999944, -0.4000000000000000222 ) ) ;
#662 = CARTESIAN_POINT ( 'NONE',  ( -0.4749999999999999778, 0.2000000000000000111, 0.4000000000000000222 ) ) ;
#663 = LINE ( 'NONE', #7, #311 ) ;
#664 = DIRECTION ( 'NONE',  ( 0.0000000000000000000, 0.0000000000000000000, -1.000000000000000000 ) ) ;
#665 = LINE ( 'NONE', #807, #691 ) ;
#666 = ORIENTED_EDGE ( 'NONE', *, *, #826, .F. ) ;
#667 = EDGE_LOOP ( 'NONE', ( #201, #261, #468, #692, #97, #174, #134, #906 ) ) ;
#668 = DIRECTION ( 'NONE',  ( 2.168404344971010446E-15, -1.000000000000000000, 0.0000000000000000000 ) ) ;
#669 = CARTESIAN_POINT ( 'NONE',  ( 0.8000000000000000444, 0.2000000000000000111, -0.4000000000000000222 ) ) ;
#670 = PLANE ( 'NONE',  #18 ) ;
#671 = CARTESIAN_POINT ( 'NONE',  ( -0.7500000000000000000, -0.1499999999999999944, -0.4000000000000000222 ) ) ;
#672 = DIRECTION ( 'NONE',  ( -1.000000000000000000, -1.084202172485503818E-16, 0.0000000000000000000 ) ) ;
#673 = DIRECTION ( 'NONE',  ( 0.0000000000000000000, 0.0000000000000000000, -1.000000000000000000 ) ) ;
#674 = CARTESIAN_POINT ( 'NONE',  ( 0.7500000000000000000, -0.1499999999999999944, 0.4000000000000000222 ) ) ;
#675 = VECTOR ( 'NONE', #555, 1000.000000000000000 ) ;
#676 = EDGE_CURVE ( 'NONE', #358, #643, #634, .T. ) ;
#677 = CARTESIAN_POINT ( 'NONE',  ( -0.4749999999999999778, 0.2000000000000000111, 0.4000000000000000222 ) ) ;
#678 = CARTESIAN_POINT ( 'NONE',  ( 0.5000000000000000000, -0.1499999999999999944, 0.4000000000000000222 ) ) ;
#679 = DIRECTION ( 'NONE',  ( 0.0000000000000000000, 1.000000000000000000, 0.0000000000000000000 ) ) ;
#680 = ORIENTED_EDGE ( 'NONE', *, *, #480, .T. ) ;
#681 = ORIENTED_EDGE ( 'NONE', *, *, #525, .F. ) ;
#682 = EDGE_LOOP ( 'NONE', ( #738, #739, #471, #776 ) ) ;
#683 = DIRECTION ( 'NONE',  ( 1.000000000000000000, 0.0000000000000000000, 0.0000000000000000000 ) ) ;
#684 = FILL_AREA_STYLE ('',( #384 ) ) ;
#685 = FACE_OUTER_BOUND ( 'NONE', #39, .T. ) ;
#686 = DIRECTION ( 'NONE',  ( 0.0000000000000000000, -1.000000000000000000, 0.0000000000000000000 ) ) ;
#687 = CARTESIAN_POINT ( 'NONE',  ( -0.8000000000000000444, -0.2000000000000000111, 0.4000000000000000222 ) ) ;
#688 = MECHANICAL_DESIGN_GEOMETRIC_PRESENTATION_REPRESENTATION (  '', ( #304 ), #456 ) ;
#689 = CARTESIAN_POINT ( 'NONE',  ( -0.8000000000000000444, 0.2000000000000000111, -0.4000000000000000222 ) ) ;
#690 = EDGE_CURVE ( 'NONE', #169, #215, #89, .T. ) ;
#691 = VECTOR ( 'NONE', #58, 1000.000000000000000 ) ;
#692 = ORIENTED_EDGE ( 'NONE', *, *, #750, .F. ) ;
#693 = ORIENTED_EDGE ( 'NONE', *, *, #748, .T. ) ;
#694 = ORIENTED_EDGE ( 'NONE', *, *, #826, .T. ) ;
#695 = CARTESIAN_POINT ( 'NONE',  ( 0.4749999999999999778, 0.1499999999999999944, 0.4000000000000000222 ) ) ;
#696 = PLANE ( 'NONE',  #428 ) ;
#697 = DIRECTION ( 'NONE',  ( -7.660246604994501092E-48, 1.000000000000000000, 3.885931738255494713E-32 ) ) ;
#698 = SURFACE_STYLE_FILL_AREA ( #684 ) ;
#699 = DIRECTION ( 'NONE',  ( -1.000000000000000000, 0.0000000000000000000, 0.0000000000000000000 ) ) ;
#700 = PLANE ( 'NONE',  #517 ) ;
#701 = EDGE_LOOP ( 'NONE', ( #243, #84, #443, #430 ) ) ;
#702 = ORIENTED_EDGE ( 'NONE', *, *, #690, .F. ) ;
#703 = VERTEX_POINT ( 'NONE', #820 ) ;
#704 = AXIS2_PLACEMENT_3D ( 'NONE', #759, #581, #894 ) ;
#705 = DIRECTION ( 'NONE',  ( 0.0000000000000000000, 0.0000000000000000000, -1.000000000000000000 ) ) ;
#706 = ORIENTED_EDGE ( 'NONE', *, *, #179, .T. ) ;
#708 = EDGE_LOOP ( 'NONE', ( #180, #694, #315, #74 ) ) ;
#707 = CARTESIAN_POINT ( 'NONE',  ( -0.8000000000000000444, -0.2000000000000000111, 0.4000000000000000222 ) ) ;
#709 = UNCERTAINTY_MEASURE_WITH_UNIT (LENGTH_MEASURE( 1.000000000000000082E-05 ), #50, 'distance_accuracy_value', 'NONE');
#710 = CARTESIAN_POINT ( 'NONE',  ( -0.4749999999999999778, 0.1499999999999999944, 0.4000000000000000222 ) ) ;
#711 = SURFACE_SIDE_STYLE ('',( #585 ) ) ;
#712 = ADVANCED_FACE ( 'NONE', ( #437 ), #349, .F. ) ;
#713 = COLOUR_RGB ( '',0.6901960784313725394, 0.6117647058823529882, 0.5294117647058823595 ) ;
#714 = EDGE_CURVE ( 'NONE', #558, #313, #131, .T. ) ;
#715 = ORIENTED_EDGE ( 'NONE', *, *, #914, .T. ) ;
#716 = FACE_OUTER_BOUND ( 'NONE', #933, .T. ) ;
#717 = LINE ( 'NONE', #710, #4 ) ;
#718 = VECTOR ( 'NONE', #415, 1000.000000000000000 ) ;
#719 = DIRECTION ( 'NONE',  ( 0.0000000000000000000, 1.000000000000000000, 0.0000000000000000000 ) ) ;
#720 = ORIENTED_EDGE ( 'NONE', *, *, #613, .T. ) ;
#721 = ORIENTED_EDGE ( 'NONE', *, *, #731, .F. ) ;
#722 = CARTESIAN_POINT ( 'NONE',  ( 0.4749999999999999778, 0.2000000000000000111, -0.4000000000000000222 ) ) ;
#723 = AXIS2_PLACEMENT_3D ( 'NONE', #645, #869, #949 ) ;
#724 = CARTESIAN_POINT ( 'NONE',  ( -0.4749999999999999778, 0.2000000000000000111, 0.4000000000000000222 ) ) ;
#725 = ADVANCED_FACE ( 'NONE', ( #817 ), #170, .F. ) ;
#726 = DIRECTION ( 'NONE',  ( 0.0000000000000000000, 0.0000000000000000000, -1.000000000000000000 ) ) ;
#727 =( LENGTH_UNIT ( ) NAMED_UNIT ( * ) SI_UNIT ( .MILLI., .METRE. ) );
#728 = LINE ( 'NONE', #289, #266 ) ;
#729 = EDGE_CURVE ( 'NONE', #371, #248, #43, .T. ) ;
#730 = ORIENTED_EDGE ( 'NONE', *, *, #209, .F. ) ;
#731 = EDGE_CURVE ( 'NONE', #146, #191, #113, .T. ) ;
#732 = DIRECTION ( 'NONE',  ( -1.000000000000000000, 0.0000000000000000000, 0.0000000000000000000 ) ) ;
#733 = ADVANCED_FACE ( 'NONE', ( #397 ), #843, .F. ) ;
#734 = FACE_OUTER_BOUND ( 'NONE', #446, .T. ) ;
#735 = VECTOR ( 'NONE', #78, 1000.000000000000000 ) ;
#736 = LINE ( 'NONE', #909, #320 ) ;
#737 = CARTESIAN_POINT ( 'NONE',  ( 0.7500000000000000000, -0.1499999999999999944, 0.4000000000000000222 ) ) ;
#738 = ORIENTED_EDGE ( 'NONE', *, *, #343, .T. ) ;
#739 = ORIENTED_EDGE ( 'NONE', *, *, #676, .F. ) ;
#740 = DIRECTION ( 'NONE',  ( 0.0000000000000000000, 0.0000000000000000000, -1.000000000000000000 ) ) ;
#741 = DIRECTION ( 'NONE',  ( -1.000000000000000000, 0.0000000000000000000, 0.0000000000000000000 ) ) ;
#742 = LINE ( 'NONE', #299, #950 ) ;
#743 = EDGE_CURVE ( 'NONE', #656, #273, #423, .T. ) ;
#744 = ORIENTED_EDGE ( 'NONE', *, *, #450, .T. ) ;
#745 = DIRECTION ( 'NONE',  ( -0.0000000000000000000, 1.000000000000000000, 0.0000000000000000000 ) ) ;
#746 = EDGE_LOOP ( 'NONE', ( #614, #249, #57, #842, #342, #944, #155, #610 ) ) ;
#747 = EDGE_LOOP ( 'NONE', ( #426, #515, #19, #931 ) ) ;
#748 = EDGE_CURVE ( 'NONE', #83, #798, #647, .T. ) ;
#749 = CARTESIAN_POINT ( 'NONE',  ( 0.7500000000000000000, -0.1499999999999999944, -0.4000000000000000222 ) ) ;
#750 = EDGE_CURVE ( 'NONE', #302, #799, #830, .T. ) ;
#751 = CARTESIAN_POINT ( 'NONE',  ( -0.4749999999999999778, 0.2000000000000000111, -0.4000000000000000222 ) ) ;
#752 = LINE ( 'NONE', #321, #846 ) ;
#753 = CARTESIAN_POINT ( 'NONE',  ( -0.7500000000000000000, -0.1499999999999999944, 0.4000000000000000222 ) ) ;
#754 = VECTOR ( 'NONE', #214, 1000.000000000000000 ) ;
#755 = LINE ( 'NONE', #847, #32 ) ;
#756 = VECTOR ( 'NONE', #69, 1000.000000000000000 ) ;
#757 = EDGE_CURVE ( 'NONE', #516, #788, #605, .T. ) ;
#758 = PLANE ( 'NONE',  #611 ) ;
#759 = CARTESIAN_POINT ( 'NONE',  ( -0.4749999999999999778, 0.1499999999999999944, 0.4000000000000000222 ) ) ;
#760 = DIRECTION ( 'NONE',  ( 0.0000000000000000000, 1.000000000000000000, 0.0000000000000000000 ) ) ;
#761 = EDGE_LOOP ( 'NONE', ( #834, #507, #451, #117 ) ) ;
#762 = CARTESIAN_POINT ( 'NONE',  ( 0.7500000000000000000, -0.1499999999999999944, 0.4000000000000000222 ) ) ;
#763 = VERTEX_POINT ( 'NONE', #923 ) ;
#764 = ORIENTED_EDGE ( 'NONE', *, *, #626, .T. ) ;
#765 = DIRECTION ( 'NONE',  ( 0.0000000000000000000, -1.000000000000000000, 0.0000000000000000000 ) ) ;
#766 = DIRECTION ( 'NONE',  ( 1.000000000000000000, 0.0000000000000000000, 1.971276677246369793E-16 ) ) ;
#767 = LINE ( 'NONE', #279, #241 ) ;
#768 = DIRECTION ( 'NONE',  ( 1.000000000000000000, 0.0000000000000000000, 0.0000000000000000000 ) ) ;
#769 = FILL_AREA_STYLE ('',( #383 ) ) ;
#770 = LINE ( 'NONE', #874, #466 ) ;
#771 = EDGE_CURVE ( 'NONE', #880, #302, #755, .T. ) ;
#772 = LINE ( 'NONE', #353, #357 ) ;
#773 = LINE ( 'NONE', #872, #718 ) ;
#774 = DIRECTION ( 'NONE',  ( -1.000000000000000000, 0.0000000000000000000, 0.0000000000000000000 ) ) ;
#775 = VERTEX_POINT ( 'NONE', #111 ) ;
#776 = ORIENTED_EDGE ( 'NONE', *, *, #340, .T. ) ;
#777 = CARTESIAN_POINT ( 'NONE',  ( -0.4749999999999999778, 0.1499999999999999944, -0.4000000000000000222 ) ) ;
#778 = DIRECTION ( 'NONE',  ( 0.0000000000000000000, -1.000000000000000000, 0.0000000000000000000 ) ) ;
#779 = EDGE_CURVE ( 'NONE', #358, #763, #571, .T. ) ;
#780 = DIRECTION ( 'NONE',  ( 0.0000000000000000000, -1.000000000000000000, 0.0000000000000000000 ) ) ;
#781 = LINE ( 'NONE', #813, #240 ) ;
#782 = CARTESIAN_POINT ( 'NONE',  ( -0.4749999999999999778, 0.1499999999999999944, -0.4000000000000000222 ) ) ;
#783 = LINE ( 'NONE', #92, #164 ) ;
#784 = PRESENTATION_STYLE_ASSIGNMENT (( #230 ) ) ;
#785 = VECTOR ( 'NONE', #699, 1000.000000000000000 ) ;
#786 = DIRECTION ( 'NONE',  ( 1.084202172485503818E-16, -1.000000000000000000, 0.0000000000000000000 ) ) ;
#787 = ORIENTED_EDGE ( 'NONE', *, *, #790, .F. ) ;
#788 = VERTEX_POINT ( 'NONE', #165 ) ;
#789 = DIRECTION ( 'NONE',  ( 1.000000000000000000, 0.0000000000000000000, -4.517509052022940401E-16 ) ) ;
#790 = EDGE_CURVE ( 'NONE', #371, #301, #449, .T. ) ;
#791 = UNCERTAINTY_MEASURE_WITH_UNIT (LENGTH_MEASURE( 1.000000000000000082E-05 ), #727, 'distance_accuracy_value', 'NONE');
#792 = VECTOR ( 'NONE', #171, 1000.000000000000000 ) ;
#793 = LINE ( 'NONE', #167, #175 ) ;
#794 = ADVANCED_FACE ( 'NONE', ( #64 ), #30, .F. ) ;
#795 = FACE_OUTER_BOUND ( 'NONE', #566, .T. ) ;
#796 = EDGE_CURVE ( 'NONE', #147, #703, #410, .T. ) ;
#797 = VERTEX_POINT ( 'NONE', #536 ) ;
#798 = VERTEX_POINT ( 'NONE', #920 ) ;
#799 = VERTEX_POINT ( 'NONE', #24 ) ;
#800 = ADVANCED_FACE ( 'NONE', ( #631 ), #37, .T. ) ;
#801 = APPLICATION_PROTOCOL_DEFINITION ( 'draft international standard', 'automotive_design', 1998, #45 ) ;
#802 = LINE ( 'NONE', #264, #51 ) ;
#803 = LINE ( 'NONE', #762, #561 ) ;
#804 = ORIENTED_EDGE ( 'NONE', *, *, #179, .F. ) ;
#805 = CARTESIAN_POINT ( 'NONE',  ( -0.4749999999999999778, 0.1499999999999999944, 0.4000000000000000222 ) ) ;
#806 = EDGE_CURVE ( 'NONE', #273, #580, #542, .T. ) ;
#807 = CARTESIAN_POINT ( 'NONE',  ( -0.8000000000000000444, 0.2000000000000000111, 0.4000000000000000222 ) ) ;
#808 = LINE ( 'NONE', #247, #785 ) ;
#809 = ADVANCED_FACE ( 'NONE', ( #141 ), #700, .F. ) ;
#810 = EDGE_CURVE ( 'NONE', #578, #476, #781, .T. ) ;
#811 = ORIENTED_EDGE ( 'NONE', *, *, #810, .F. ) ;
#812 = EDGE_LOOP ( 'NONE', ( #271, #539, #702, #720 ) ) ;
#813 = CARTESIAN_POINT ( 'NONE',  ( -0.7500000000000000000, 0.1499999999999999944, 0.4000000000000000222 ) ) ;
#814 = CARTESIAN_POINT ( 'NONE',  ( -0.8000000000000000444, 0.2000000000000000111, 0.4000000000000000222 ) ) ;
#815 = ADVANCED_FACE ( 'NONE', ( #518 ), #486, .F. ) ;
#816 =( NAMED_UNIT ( * ) PLANE_ANGLE_UNIT ( ) SI_UNIT ( $, .RADIAN. ) );
#817 = FACE_OUTER_BOUND ( 'NONE', #701, .T. ) ;
#818 = CARTESIAN_POINT ( 'NONE',  ( 0.4749999999999999778, 0.1499999999999999944, 0.4000000000000000222 ) ) ;
#819 = PRESENTATION_LAYER_ASSIGNMENT (  '', '', ( #875 ) ) ;
#820 = CARTESIAN_POINT ( 'NONE',  ( -0.8000000000000000444, -0.2000000000000000111, -0.4000000000000000222 ) ) ;
#821 = DIRECTION ( 'NONE',  ( 0.0000000000000000000, 0.0000000000000000000, -1.000000000000000000 ) ) ;
#822 = DIRECTION ( 'NONE',  ( 0.0000000000000000000, 0.0000000000000000000, -1.000000000000000000 ) ) ;
#823 = LINE ( 'NONE', #295, #232 ) ;
#824 = ORIENTED_EDGE ( 'NONE', *, *, #436, .F. ) ;
#825 = SURFACE_STYLE_USAGE ( .BOTH. , #584 ) ;
#826 = EDGE_CURVE ( 'NONE', #932, #578, #362, .T. ) ;
#827 =( NAMED_UNIT ( * ) PLANE_ANGLE_UNIT ( ) SI_UNIT ( $, .RADIAN. ) );
#828 = DIRECTION ( 'NONE',  ( -1.000000000000000000, 0.0000000000000000000, 0.0000000000000000000 ) ) ;
#829 = LINE ( 'NONE', #157, #513 ) ;
#830 = LINE ( 'NONE', #242, #182 ) ;
#831 = ORIENTED_EDGE ( 'NONE', *, *, #583, .T. ) ;
#832 = EDGE_CURVE ( 'NONE', #643, #386, #339, .T. ) ;
#833 = COLOUR_RGB ( '',0.2000000000000000111, 0.2000000000000000111, 0.2000000000000000111 ) ;
#834 = ORIENTED_EDGE ( 'NONE', *, *, #472, .T. ) ;
#835 = ORIENTED_EDGE ( 'NONE', *, *, #586, .T. ) ;
#836 = EDGE_CURVE ( 'NONE', #656, #83, #532, .T. ) ;
#837 = CARTESIAN_POINT ( 'NONE',  ( -0.5000000000000000000, -0.2000000000000000111, 0.4000000000000000222 ) ) ;
#838 = DIRECTION ( 'NONE',  ( 1.000000000000000000, 0.0000000000000000000, 0.0000000000000000000 ) ) ;
#839 = VECTOR ( 'NONE', #732, 1000.000000000000000 ) ;
#840 = FACE_OUTER_BOUND ( 'NONE', #812, .T. ) ;
#841 = ORIENTED_EDGE ( 'NONE', *, *, #245, .F. ) ;
#842 = ORIENTED_EDGE ( 'NONE', *, *, #245, .T. ) ;
#843 = PLANE ( 'NONE',  #363 ) ;
#844 = DIRECTION ( 'NONE',  ( 0.0000000000000000000, 0.0000000000000000000, -1.000000000000000000 ) ) ;
#845 = EDGE_CURVE ( 'NONE', #146, #181, #660, .T. ) ;
#846 = VECTOR ( 'NONE', #867, 1000.000000000000000 ) ;
#847 = CARTESIAN_POINT ( 'NONE',  ( 0.4749999999999999778, 0.2000000000000000111, 0.4000000000000000222 ) ) ;
#848 = VECTOR ( 'NONE', #15, 1000.000000000000000 ) ;
#849 = CLOSED_SHELL ( 'NONE', ( #500, #204, #794, #278, #946, #420 ) ) ;
#850 = AXIS2_PLACEMENT_3D ( 'NONE', #541, #697, #766 ) ;
#851 = CARTESIAN_POINT ( 'NONE',  ( 0.4749999999999999778, 0.1499999999999999944, 0.4000000000000000222 ) ) ;
#852 = FACE_OUTER_BOUND ( 'NONE', #284, .T. ) ;
#853 = SURFACE_STYLE_USAGE ( .BOTH. , #244 ) ;
#854 = LINE ( 'NONE', #408, #637 ) ;
#855 = ORIENTED_EDGE ( 'NONE', *, *, #955, .T. ) ;
#856 = ORIENTED_EDGE ( 'NONE', *, *, #41, .T. ) ;
#857 = CARTESIAN_POINT ( 'NONE',  ( 0.4749999999999999778, 0.1499999999999999944, -0.4000000000000000222 ) ) ;
#858 = EDGE_CURVE ( 'NONE', #105, #639, #604, .T. ) ;
#859 = PRESENTATION_STYLE_ASSIGNMENT (( #853 ) ) ;
#860 = VECTOR ( 'NONE', #760, 1000.000000000000000 ) ;
#861 = LINE ( 'NONE', #661, #654 ) ;
#862 = DIRECTION ( 'NONE',  ( 1.000000000000000000, 0.0000000000000000000, 0.0000000000000000000 ) ) ;
#863 = ORIENTED_EDGE ( 'NONE', *, *, #836, .T. ) ;
#864 = ADVANCED_FACE ( 'NONE', ( #160 ), #670, .F. ) ;
#865 = ORIENTED_EDGE ( 'NONE', *, *, #192, .T. ) ;
#866 = EDGE_CURVE ( 'NONE', #301, #55, #102, .T. ) ;
#867 = DIRECTION ( 'NONE',  ( 0.0000000000000000000, 0.0000000000000000000, -1.000000000000000000 ) ) ;
#868 = DIRECTION ( 'NONE',  ( 0.0000000000000000000, -1.000000000000000000, 0.0000000000000000000 ) ) ;
#869 = DIRECTION ( 'NONE',  ( 0.0000000000000000000, 0.0000000000000000000, -1.000000000000000000 ) ) ;
#870 = ORIENTED_EDGE ( 'NONE', *, *, #748, .F. ) ;
#871 = ORIENTED_EDGE ( 'NONE', *, *, #259, .F. ) ;
#872 = CARTESIAN_POINT ( 'NONE',  ( 0.5000000000000000000, -0.1499999999999999944, 0.4000000000000000222 ) ) ;
#873 = ADVANCED_FACE ( 'NONE', ( #912 ), #758, .T. ) ;
#874 = CARTESIAN_POINT ( 'NONE',  ( 0.5000000000000000000, -0.2000000000000000111, 0.4000000000000000222 ) ) ;
#875 = STYLED_ITEM ( 'NONE', ( #784 ), #198 ) ;
#876 = VECTOR ( 'NONE', #740, 1000.000000000000000 ) ;
#877 = SURFACE_STYLE_USAGE ( .BOTH. , #509 ) ;
#878 = LINE ( 'NONE', #837, #636 ) ;
#879 = FACE_OUTER_BOUND ( 'NONE', #156, .T. ) ;
#880 = VERTEX_POINT ( 'NONE', #95 ) ;
#881 = VERTEX_POINT ( 'NONE', #674 ) ;
#882 = CARTESIAN_POINT ( 'NONE',  ( 0.7500000000000000000, -0.1499999999999999944, 0.4000000000000000222 ) ) ;
#883 = ORIENTED_EDGE ( 'NONE', *, *, #714, .T. ) ;
#884 = DIRECTION ( 'NONE',  ( 0.0000000000000000000, 0.0000000000000000000, 1.000000000000000000 ) ) ;
#885 = CARTESIAN_POINT ( 'NONE',  ( -0.7500000000000000000, 0.1499999999999999944, -0.4000000000000000222 ) ) ;
#886 = FILL_AREA_STYLE ('',( #632 ) ) ;
#887 = PRODUCT ( 'RR0816P-103-D', 'RR0816P-103-D', '', ( #73 ) ) ;
#888 = PLANE ( 'NONE',  #183 ) ;
#889 = AXIS2_PLACEMENT_3D ( 'NONE', #737, #347, #884 ) ;
#890 = PLANE ( 'NONE',  #704 ) ;
#891 =( NAMED_UNIT ( * ) SI_UNIT ( $, .STERADIAN. ) SOLID_ANGLE_UNIT ( ) );
#892 = CARTESIAN_POINT ( 'NONE',  ( -0.4749999999999999778, 0.2000000000000000111, 0.4000000000000000222 ) ) ;
#893 = SURFACE_STYLE_FILL_AREA ( #769 ) ;
#894 = DIRECTION ( 'NONE',  ( 1.000000000000000000, 0.0000000000000000000, -8.870745047608669863E-16 ) ) ;
#895 = PRESENTATION_LAYER_ASSIGNMENT (  '', '', ( #158 ) ) ;
#896 = ORIENTED_EDGE ( 'NONE', *, *, #46, .F. ) ;
#897 = EDGE_LOOP ( 'NONE', ( #225, #322, #804, #824, #730, #294, #478, #418 ) ) ;
#898 = EDGE_CURVE ( 'NONE', #372, #775, #462, .T. ) ;
#899 = CARTESIAN_POINT ( 'NONE',  ( 0.8000000000000000444, 0.2000000000000000111, 0.4000000000000000222 ) ) ;
#900 = CARTESIAN_POINT ( 'NONE',  ( 0.5000000000000000000, -0.2000000000000000111, 0.4000000000000000222 ) ) ;
#901 = FACE_OUTER_BOUND ( 'NONE', #667, .T. ) ;
#902 = EDGE_CURVE ( 'NONE', #788, #881, #803, .T. ) ;
#903 = DIRECTION ( 'NONE',  ( 0.0000000000000000000, 1.000000000000000000, 0.0000000000000000000 ) ) ;
#904 = CARTESIAN_POINT ( 'NONE',  ( 0.7500000000000000000, -0.1499999999999999944, 0.4000000000000000222 ) ) ;
#905 = DIRECTION ( 'NONE',  ( 0.0000000000000000000, -1.000000000000000000, 0.0000000000000000000 ) ) ;
#906 = ORIENTED_EDGE ( 'NONE', *, *, #472, .F. ) ;
#907 = VERTEX_POINT ( 'NONE', #23 ) ;
#908 = CARTESIAN_POINT ( 'NONE',  ( 0.5000000000000000000, -0.1499999999999999944, -0.4000000000000000222 ) ) ;
#909 = CARTESIAN_POINT ( 'NONE',  ( 0.5000000000000000000, -0.1499999999999999944, 0.4000000000000000222 ) ) ;
#910 = EDGE_CURVE ( 'NONE', #301, #932, #742, .T. ) ;
#911 = DIRECTION ( 'NONE',  ( 0.0000000000000000000, 0.0000000000000000000, 1.000000000000000000 ) ) ;
#912 = FACE_OUTER_BOUND ( 'NONE', #746, .T. ) ;
#913 =( NAMED_UNIT ( * ) SI_UNIT ( $, .STERADIAN. ) SOLID_ANGLE_UNIT ( ) );
#914 = EDGE_CURVE ( 'NONE', #202, #393, #829, .T. ) ;
#915 = VECTOR ( 'NONE', #414, 1000.000000000000000 ) ;
#916 = LINE ( 'NONE', #818, #442 ) ;
#917 = VECTOR ( 'NONE', #780, 1000.000000000000000 ) ;
#918 = ORIENTED_EDGE ( 'NONE', *, *, #317, .F. ) ;
#919 = ORIENTED_EDGE ( 'NONE', *, *, #501, .T. ) ;
#920 = CARTESIAN_POINT ( 'NONE',  ( -0.4749999999999999778, 0.2000000000000000111, 0.4000000000000000222 ) ) ;
#921 = CARTESIAN_POINT ( 'NONE',  ( 0.5000000000000000000, -0.2000000000000000111, 0.4000000000000000222 ) ) ;
#922 = DIRECTION ( 'NONE',  ( 0.0000000000000000000, 1.000000000000000000, 0.0000000000000000000 ) ) ;
#923 = CARTESIAN_POINT ( 'NONE',  ( 0.8000000000000000444, 0.2000000000000000111, 0.4000000000000000222 ) ) ;
#924 = VECTOR ( 'NONE', #778, 1000.000000000000000 ) ;
#925 = ORIENTED_EDGE ( 'NONE', *, *, #771, .F. ) ;
#926 = CARTESIAN_POINT ( 'NONE',  ( 0.4749999999999999778, 0.2000000000000000111, 0.4000000000000000222 ) ) ;
#927 = AXIS2_PLACEMENT_3D ( 'NONE', #695, #612, #911 ) ;
#928 = DIRECTION ( 'NONE',  ( 9.219281893127623682E-47, 1.000000000000000000, 2.040788803510915034E-31 ) ) ;
#929 = MANIFOLD_SOLID_BREP ( 'NONE', #90 ) ;
#930 =( NAMED_UNIT ( * ) PLANE_ANGLE_UNIT ( ) SI_UNIT ( $, .RADIAN. ) );
#931 = ORIENTED_EDGE ( 'NONE', *, *, #676, .T. ) ;
#932 = VERTEX_POINT ( 'NONE', #28 ) ;
#933 = EDGE_LOOP ( 'NONE', ( #856, #623, #505, #504 ) ) ;
#935 = ORIENTED_EDGE ( 'NONE', *, *, #743, .T. ) ;
#934 = PLANE ( 'NONE',  #599 ) ;
#936 = ADVANCED_FACE ( 'NONE', ( #685 ), #934, .F. ) ;
#937 = PLANE ( 'NONE',  #658 ) ;
#938 = VECTOR ( 'NONE', #344, 1000.000000000000000 ) ;
#939 = VECTOR ( 'NONE', #176, 1000.000000000000000 ) ;
#940 = AXIS2_PLACEMENT_3D ( 'NONE', #464, #928, #789 ) ;
#941 = PRESENTATION_STYLE_ASSIGNMENT (( #877 ) ) ;
#942 = CARTESIAN_POINT ( 'NONE',  ( 0.0000000000000000000, 0.0000000000000000000, 0.0000000000000000000 ) ) ;
#943 = ORIENTED_EDGE ( 'NONE', *, *, #537, .T. ) ;
#944 = ORIENTED_EDGE ( 'NONE', *, *, #858, .T. ) ;
#945 = CARTESIAN_POINT ( 'NONE',  ( -0.7500000000000000000, -0.1499999999999999944, -0.4000000000000000222 ) ) ;
#946 = ADVANCED_FACE ( 'NONE', ( #276 ), #937, .F. ) ;
#947 = SURFACE_STYLE_USAGE ( .BOTH. , #711 ) ;
#948 = EDGE_CURVE ( 'NONE', #215, #558, #752, .T. ) ;
#949 = DIRECTION ( 'NONE',  ( 0.0000000000000000000, -1.000000000000000000, 0.0000000000000000000 ) ) ;
#950 = VECTOR ( 'NONE', #922, 1000.000000000000000 ) ;
#951 = CARTESIAN_POINT ( 'NONE',  ( 0.5000000000000000000, -0.1499999999999999944, 0.4000000000000000222 ) ) ;
#952 = CARTESIAN_POINT ( 'NONE',  ( 0.7500000000000000000, 0.1499999999999999944, -0.4000000000000000222 ) ) ;
#953 = VECTOR ( 'NONE', #579, 1000.000000000000000 ) ;
#954 = DIRECTION ( 'NONE',  ( 1.000000000000000000, 0.0000000000000000000, 0.0000000000000000000 ) ) ;
#955 = EDGE_CURVE ( 'NONE', #248, #55, #802, .T. ) ;
#956 = DIRECTION ( 'NONE',  ( 1.000000000000000000, -4.517509052022940401E-16, 0.0000000000000000000 ) ) ;
#957 = EDGE_LOOP ( 'NONE', ( #260, #345, #896, #227 ) ) ;
#958 =( NAMED_UNIT ( * ) SI_UNIT ( $, .STERADIAN. ) SOLID_ANGLE_UNIT ( ) );
#959 = ORIENTED_EDGE ( 'NONE', *, *, #729, .T. ) ;
#960 = VERTEX_POINT ( 'NONE', #707 ) ;
#961 = CARTESIAN_POINT ( 'NONE',  ( -0.7500000000000000000, -0.1499999999999999944, 0.4000000000000000222 ) ) ;
ENDSEC;
END-ISO-10303-21;
