M48
; DRILL file {KiCad 9.0.7-9.0.7~ubuntu24.04.1} date 2026-03-01T10:35:37-0700
; FORMAT={-:-/ absolute / metric / decimal}
; #@! TF.CreationDate,2026-03-01T10:35:37-07:00
; #@! TF.GenerationSoftware,Kicad,Pcbnew,9.0.7-9.0.7~ubuntu24.04.1
; #@! TF.FileFunction,Plated,1,4,PTH
FMAT,2
METRIC
; #@! TA.AperFunction,Plated,PTH,ViaDrill
T1C0.300
; #@! TA.AperFunction,Plated,PTH,ComponentDrill
T2C1.100
%
G90
G05
T1
X23.41Y-97.17
X23.6Y-24.8
X23.9Y-34.7
X24.25Y-45.5
X25.99Y-38.09
X26.55Y-79.2
X27.0Y-84.5
X27.0Y-95.7
X27.3Y-93.1
X27.5Y-51.0
X27.75Y-32.75
X29.2Y-88.4
X29.2Y-90.2
X29.2Y-91.8
X29.3Y-95.7
X29.625Y-77.325
X30.7Y-86.7
X30.8Y-93.4
X31.82Y-32.51
X32.1Y-95.7
X32.11Y-55.57
X32.5Y-93.4
X32.6Y-86.8
X32.75Y-39.5
X33.75Y-39.0
X34.2Y-93.4
X34.3Y-86.8
X34.336Y-43.774
X34.5Y-32.6
X35.0Y-78.0
X35.5Y-95.7
X35.9Y-88.2
X35.9Y-90.0
X35.9Y-91.8
X36.5Y-70.75
X36.5Y-72.0
X36.56Y-61.23
X36.6Y-40.9
X37.75Y-70.75
X37.75Y-72.0
X37.8Y-84.4
X38.0Y-42.6
X38.0Y-78.7
X38.03Y-54.03
X38.2Y-40.9
X38.2Y-95.7
X38.48Y-59.03
X39.0Y-70.75
X39.0Y-72.0
X39.0Y-78.45
X39.4Y-42.6
X41.19Y-58.76
X41.4Y-85.8
X41.595Y-56.545
X41.674Y-92.43
T2
X27.1Y-27.5
X30.6Y-27.5
X34.1Y-27.5
X37.6Y-27.5
M30
