%TF.GenerationSoftware,KiCad,Pcbnew,9.0.7-9.0.7~ubuntu24.04.1*%
%TF.CreationDate,2026-02-27T00:52:00-07:00*%
%TF.ProjectId,suspension_accel,73757370-656e-4736-996f-6e5f61636365,rev?*%
%TF.SameCoordinates,Original*%
%TF.FileFunction,Copper,L3,Inr*%
%TF.FilePolarity,Positive*%
%FSLAX46Y46*%
G04 Gerber Fmt 4.6, Leading zero omitted, Abs format (unit mm)*
G04 Created by KiCad (PCBNEW 9.0.7-9.0.7~ubuntu24.04.1) date 2026-02-27 00:52:00*
%MOMM*%
%LPD*%
G01*
G04 APERTURE LIST*
%TA.AperFunction,ComponentPad*%
%ADD10C,1.650000*%
%TD*%
%TA.AperFunction,ViaPad*%
%ADD11C,0.600000*%
%TD*%
G04 APERTURE END LIST*
D10*
%TO.N,Net-(MOS1-D)*%
%TO.C,J1*%
X27100000Y-27500000D03*
%TO.N,Net-(IC1-CANH)*%
X30600000Y-27500000D03*
%TO.N,Net-(IC1-CANL)*%
X34100000Y-27500000D03*
%TO.N,GND*%
X37600000Y-27500000D03*
%TD*%
D11*
%TO.N,GND*%
X41400000Y-85800000D03*
X35000000Y-78000000D03*
X38000000Y-78700000D03*
%TO.N,+3.3V*%
X39000000Y-78450000D03*
%TO.N,+5V*%
X32750000Y-39500000D03*
X38200000Y-40900000D03*
X23900000Y-34700000D03*
X38000000Y-42600000D03*
%TO.N,GND*%
X37750000Y-72000000D03*
X38200000Y-95700000D03*
X27000000Y-84500000D03*
X34200000Y-93400000D03*
X36560000Y-61230000D03*
X37750000Y-70750000D03*
X34300000Y-86800000D03*
X41190000Y-58760000D03*
X32100000Y-95700000D03*
X24250000Y-45500000D03*
X27750000Y-32750000D03*
X32600000Y-86800000D03*
X32500000Y-93400000D03*
X30800000Y-93400000D03*
X29200000Y-91800000D03*
X36500000Y-70750000D03*
X39400000Y-42600000D03*
X36500000Y-72000000D03*
X41595000Y-56545000D03*
X29200000Y-90200000D03*
X29200000Y-88400000D03*
X37800000Y-84400000D03*
X35900000Y-91800000D03*
X38480000Y-59030000D03*
X39000000Y-70750000D03*
X35900000Y-88200000D03*
X35500000Y-95700000D03*
X27500000Y-51000000D03*
X30700000Y-86700000D03*
X27000000Y-95700000D03*
X29300000Y-95700000D03*
X23600000Y-24800000D03*
X34335846Y-43773834D03*
X39000000Y-72000000D03*
X27300000Y-93100000D03*
X36600000Y-40900000D03*
X35900000Y-90000000D03*
X34500000Y-32600000D03*
%TO.N,+3.3V*%
X23410000Y-97170000D03*
X29625000Y-77325000D03*
X25990000Y-38090000D03*
X33750000Y-39000000D03*
X26550000Y-79200000D03*
X41674000Y-92430000D03*
%TD*%
M02*
