%TF.GenerationSoftware,KiCad,Pcbnew,9.0.7-9.0.7~ubuntu24.04.1*%
%TF.CreationDate,2026-03-01T10:35:33-07:00*%
%TF.ProjectId,suspension_accel,73757370-656e-4736-996f-6e5f61636365,rev?*%
%TF.SameCoordinates,Original*%
%TF.FileFunction,Soldermask,Top*%
%TF.FilePolarity,Negative*%
%FSLAX46Y46*%
G04 Gerber Fmt 4.6, Leading zero omitted, Abs format (unit mm)*
G04 Created by KiCad (PCBNEW 9.0.7-9.0.7~ubuntu24.04.1) date 2026-03-01 10:35:33*
%MOMM*%
%LPD*%
G01*
G04 APERTURE LIST*
%ADD10R,0.600000X1.200000*%
%ADD11R,0.939800X0.762000*%
%ADD12R,0.475000X0.500000*%
%ADD13R,0.450000X1.475000*%
%ADD14R,3.250000X1.450000*%
%ADD15R,0.950000X1.450000*%
%ADD16R,0.400000X1.200000*%
%ADD17R,0.800000X0.950000*%
%ADD18R,0.400000X0.700000*%
%ADD19C,2.200000*%
%ADD20R,0.270000X0.250000*%
%ADD21R,1.200000X1.200000*%
%ADD22R,0.800000X0.800000*%
%ADD23R,0.400000X0.800000*%
%ADD24R,0.800000X0.400000*%
%ADD25R,0.780000X0.980000*%
%ADD26R,0.300000X0.600000*%
%ADD27R,0.600000X0.300000*%
%ADD28R,1.000000X2.800000*%
%ADD29R,0.600000X1.700000*%
%ADD30R,1.600000X1.050000*%
%ADD31R,0.700000X1.550000*%
%ADD32R,0.620000X0.620000*%
%ADD33R,0.250000X0.270000*%
%ADD34R,0.730000X0.940000*%
%ADD35R,1.400000X0.900000*%
%ADD36R,2.800000X1.000000*%
%ADD37R,1.700000X0.600000*%
%ADD38R,1.000000X1.000000*%
%ADD39R,0.406000X1.016000*%
%ADD40R,0.600000X1.300000*%
%ADD41R,0.950000X0.800000*%
%ADD42R,0.950000X1.000000*%
%ADD43C,1.650000*%
%ADD44R,0.500000X0.475000*%
G04 APERTURE END LIST*
D10*
%TO.C,IC6*%
X40400000Y-48000000D03*
X38500000Y-48000000D03*
X38500000Y-45500000D03*
X39450000Y-45500000D03*
X40400000Y-45500000D03*
%TD*%
D11*
%TO.C,R4*%
X23410000Y-96218200D03*
X23410000Y-94541800D03*
%TD*%
D12*
%TO.C,R8*%
X37512000Y-81250000D03*
X36488000Y-81250000D03*
%TD*%
D13*
%TO.C,IC5*%
X40425000Y-74688000D03*
X39775000Y-74688000D03*
X39125000Y-74688000D03*
X38475000Y-74688000D03*
X37825000Y-74688000D03*
X37175000Y-74688000D03*
X36525000Y-74688000D03*
X35875000Y-74688000D03*
X35875000Y-68812000D03*
X36525000Y-68812000D03*
X37175000Y-68812000D03*
X37825000Y-68812000D03*
X38475000Y-68812000D03*
X39125000Y-68812000D03*
X39775000Y-68812000D03*
X40425000Y-68812000D03*
%TD*%
D14*
%TO.C,IC2*%
X25990000Y-42700000D03*
D15*
X23700000Y-36100000D03*
X25990000Y-36100000D03*
X28280000Y-36100000D03*
%TD*%
D16*
%TO.C,IC3*%
X33350000Y-40550000D03*
X34000000Y-40550000D03*
X34650000Y-40550000D03*
X34650000Y-42450000D03*
X34000000Y-42450000D03*
X33350000Y-42450000D03*
%TD*%
D17*
%TO.C,R6*%
X26400000Y-80450000D03*
X28000000Y-80450000D03*
%TD*%
D18*
%TO.C,D5*%
X30610000Y-32350000D03*
X29910000Y-32350000D03*
%TD*%
D19*
%TO.C,REF\u002A\u002A*%
X32090000Y-36100000D03*
%TD*%
D20*
%TO.C,D1*%
X41720000Y-55522000D03*
X41720000Y-55097000D03*
%TD*%
D21*
%TO.C,IC4*%
X32500000Y-91650000D03*
X30850000Y-91650000D03*
X30850000Y-90000000D03*
X30850000Y-88350000D03*
X32500000Y-88350000D03*
X34150000Y-88350000D03*
X34150000Y-90000000D03*
X34150000Y-91650000D03*
D22*
X25500000Y-97000000D03*
X25500000Y-83000000D03*
X39500000Y-83000000D03*
X39500000Y-97000000D03*
D21*
X32500000Y-90000000D03*
D23*
X38450000Y-97000000D03*
X37600000Y-97000000D03*
X36750000Y-97000000D03*
X35900000Y-97000000D03*
X35050000Y-97000000D03*
X34200000Y-97000000D03*
X33350000Y-97000000D03*
X32500000Y-97000000D03*
X31650000Y-97000000D03*
X30800000Y-97000000D03*
X29950000Y-97000000D03*
X29100000Y-97000000D03*
X28250000Y-97000000D03*
X27400000Y-97000000D03*
X26550000Y-97000000D03*
D24*
X25500000Y-95950000D03*
X25500000Y-95100000D03*
X25500000Y-94250000D03*
X25500000Y-93400000D03*
X25500000Y-92550000D03*
X25500000Y-91700000D03*
X25500000Y-90850000D03*
X25500000Y-90000000D03*
X25500000Y-89150000D03*
X25500000Y-88300000D03*
X25500000Y-87450000D03*
X25500000Y-86600000D03*
X25500000Y-85750000D03*
X25500000Y-84900000D03*
X25500000Y-84050000D03*
D23*
X26550000Y-83000000D03*
X27400000Y-83000000D03*
X28250000Y-83000000D03*
X29100000Y-83000000D03*
X29950000Y-83000000D03*
X30800000Y-83000000D03*
X31650000Y-83000000D03*
X32500000Y-83000000D03*
X33350000Y-83000000D03*
X34200000Y-83000000D03*
X35050000Y-83000000D03*
X35900000Y-83000000D03*
X36750000Y-83000000D03*
X37600000Y-83000000D03*
X38450000Y-83000000D03*
D24*
X39500000Y-84050000D03*
X39500000Y-84900000D03*
X39500000Y-85750000D03*
X39500000Y-86600000D03*
X39500000Y-87450000D03*
X39500000Y-88300000D03*
X39500000Y-89150000D03*
X39500000Y-90000000D03*
X39500000Y-90850000D03*
X39500000Y-91700000D03*
X39500000Y-92550000D03*
X39500000Y-93400000D03*
X39500000Y-94250000D03*
X39500000Y-95100000D03*
X39500000Y-95950000D03*
%TD*%
D25*
%TO.C,C8*%
X37670000Y-67090000D03*
X36270000Y-67090000D03*
%TD*%
D26*
%TO.C,IMU1*%
X27250000Y-77600000D03*
X26750000Y-77600000D03*
X26250000Y-77600000D03*
D27*
X25600000Y-77450000D03*
X25600000Y-76950000D03*
X25600000Y-76450000D03*
X25600000Y-75950000D03*
D26*
X26250000Y-75800000D03*
X26750000Y-75800000D03*
X27250000Y-75800000D03*
D27*
X27900000Y-75950000D03*
X27900000Y-76450000D03*
X27900000Y-76950000D03*
X27900000Y-77450000D03*
%TD*%
D28*
%TO.C,J2*%
X31125000Y-48375000D03*
X23675000Y-48375000D03*
D29*
X29275000Y-45025000D03*
X28025000Y-45025000D03*
X26775000Y-45025000D03*
X25525000Y-45025000D03*
%TD*%
D30*
%TO.C,C3*%
X41300000Y-96560000D03*
X41300000Y-93610000D03*
%TD*%
D20*
%TO.C,D3*%
X37510000Y-58928000D03*
X37510000Y-59353000D03*
%TD*%
D31*
%TO.C,IC1*%
X35460000Y-32600000D03*
X36730000Y-32600000D03*
X38000000Y-32600000D03*
X39270000Y-32600000D03*
X39270000Y-38050000D03*
X38000000Y-38050000D03*
X36730000Y-38050000D03*
X35460000Y-38050000D03*
%TD*%
D32*
%TO.C,C5*%
X37100000Y-78150000D03*
X36200000Y-78150000D03*
%TD*%
D33*
%TO.C,D2*%
X40027000Y-58980000D03*
X40452000Y-58980000D03*
%TD*%
D11*
%TO.C,R2*%
X41400000Y-89461800D03*
X41400000Y-91138200D03*
%TD*%
D16*
%TO.C,IC7*%
X40350000Y-38550000D03*
X41000000Y-38550000D03*
X41650000Y-38550000D03*
X41650000Y-40450000D03*
X41000000Y-40450000D03*
X40350000Y-40450000D03*
%TD*%
D34*
%TO.C,C4*%
X39420000Y-43700000D03*
X38000000Y-43700000D03*
%TD*%
D19*
%TO.C,REF\u002A\u002A*%
X30950000Y-71250000D03*
%TD*%
D35*
%TO.C,PWR_LED1*%
X23500000Y-27650000D03*
X23500000Y-25750000D03*
%TD*%
D36*
%TO.C,STRAIN1*%
X30675000Y-58975000D03*
X30675000Y-51525000D03*
D37*
X34025000Y-57125000D03*
X34025000Y-55875000D03*
X34025000Y-54625000D03*
X34025000Y-53375000D03*
%TD*%
D38*
%TO.C,REF\u002A\u002A*%
X41400000Y-87050000D03*
%TD*%
D39*
%TO.C,RN1*%
X39925000Y-65069000D03*
X39275000Y-65069000D03*
X38625000Y-65069000D03*
X37975000Y-65069000D03*
X37975000Y-60751000D03*
X38625000Y-60751000D03*
X39275000Y-60751000D03*
X39925000Y-60751000D03*
%TD*%
D32*
%TO.C,C6*%
X38650000Y-76450000D03*
X38650000Y-77350000D03*
%TD*%
D38*
%TO.C,REF\u002A\u002A*%
X23500000Y-92800000D03*
%TD*%
D25*
%TO.C,C7*%
X35550000Y-76450000D03*
X36950000Y-76450000D03*
%TD*%
D40*
%TO.C,MOS1*%
X24850000Y-34200000D03*
X23900000Y-32100000D03*
X25800000Y-32100000D03*
%TD*%
D12*
%TO.C,R10*%
X36412000Y-80250000D03*
X35388000Y-80250000D03*
%TD*%
D41*
%TO.C,R1*%
X23400000Y-30500000D03*
X23400000Y-28900000D03*
%TD*%
D35*
%TO.C,BLINK_LED1*%
X27000000Y-54450000D03*
X27000000Y-52550000D03*
%TD*%
D42*
%TO.C,C2*%
X25600000Y-73950000D03*
X27200000Y-73950000D03*
%TD*%
D12*
%TO.C,R9*%
X39762000Y-81250000D03*
X38738000Y-81250000D03*
%TD*%
D43*
%TO.C,J1*%
X37600000Y-27500000D03*
X34100000Y-27500000D03*
X30600000Y-27500000D03*
X27100000Y-27500000D03*
%TD*%
D44*
%TO.C,R7*%
X33400000Y-81112000D03*
X33400000Y-80088000D03*
%TD*%
D36*
%TO.C,STRAIN2*%
X36875000Y-57725000D03*
X36875000Y-50275000D03*
D37*
X40225000Y-55875000D03*
X40225000Y-54625000D03*
X40225000Y-53375000D03*
X40225000Y-52125000D03*
%TD*%
D41*
%TO.C,R5*%
X29900000Y-78550000D03*
X29900000Y-80150000D03*
%TD*%
D42*
%TO.C,C1*%
X38200000Y-39800000D03*
X36600000Y-39800000D03*
%TD*%
D41*
%TO.C,R3*%
X25750000Y-57800000D03*
X25750000Y-56200000D03*
%TD*%
D20*
%TO.C,D4*%
X36030000Y-60432000D03*
X36030000Y-60007000D03*
%TD*%
M02*
